<?xml version="1.0" encoding="utf-8" standalone="no"?>
<!DOCTYPE svg PUBLIC "-//W3C//DTD SVG 1.1//EN"
  "http://www.w3.org/Graphics/SVG/1.1/DTD/svg11.dtd">
<svg xmlns:xlink="http://www.w3.org/1999/xlink" width="545.201358pt" height="366.281241pt" viewBox="0 0 545.201358 366.281241" xmlns="http://www.w3.org/2000/svg" version="1.1">
 <metadata>
  <rdf:RDF xmlns:dc="http://purl.org/dc/elements/1.1/" xmlns:cc="http://creativecommons.org/ns#" xmlns:rdf="http://www.w3.org/1999/02/22-rdf-syntax-ns#">
   <cc:Work>
    <dc:type rdf:resource="http://purl.org/dc/dcmitype/StillImage"/>
    <dc:date>2024-02-08T12:08:30.896777</dc:date>
    <dc:format>image/svg+xml</dc:format>
    <dc:creator>
     <cc:Agent>
      <dc:title>Matplotlib v3.7.1, https://matplotlib.org/</dc:title>
     </cc:Agent>
    </dc:creator>
   </cc:Work>
  </rdf:RDF>
 </metadata>
 <defs>
  <style type="text/css">*{stroke-linejoin: round; stroke-linecap: butt}</style>
 </defs>
 <g id="figure_1">
  <g id="patch_1">
   <path d="M 0 366.281241 
L 545.201358 366.281241 
L 545.201358 0 
L 0 0 
z
" style="fill: #ffffff"/>
  </g>
  <g id="axes_1">
   <g id="patch_2">
    <path d="M 65.436793 359.081241 
L 456.036793 359.081241 
L 456.036793 26.441241 
L 65.436793 26.441241 
z
" style="fill: #ffffff"/>
   </g>
   <g id="matplotlib.axis_1">
    <g id="xtick_1">
     <g id="text_1">
      <!-- Scottsbluff -->
      <g style="fill: #262626" transform="translate(78.115444 14.810347) scale(0.11 -0.11)">
       <defs>
        <path id="CMSS17-53" d="M 2797 4230 
C 2515 4396 2208 4544 1690 4544 
C 864 4544 333 3934 333 3309 
C 333 3064 403 2787 653 2504 
C 902 2220 1184 2143 1542 2053 
C 1690 2014 1939 1943 1984 1924 
C 2342 1782 2515 1454 2515 1144 
C 2515 738 2202 307 1645 307 
C 1453 307 890 339 358 829 
L 269 320 
C 794 -64 1363 -128 1651 -128 
C 2438 -128 3002 494 3002 1202 
C 3002 1460 2925 1789 2656 2092 
C 2394 2381 2163 2446 1638 2588 
C 1338 2665 1146 2717 986 2916 
C 877 3058 819 3193 819 3367 
C 819 3728 1126 4121 1690 4121 
C 1971 4121 2336 4063 2707 3715 
L 2797 4230 
z
" transform="scale(0.015625)"/>
        <path id="CMSS17-63" d="M 2464 2540 
C 2464 2585 2170 2713 2093 2739 
C 1882 2816 1613 2816 1542 2816 
C 710 2816 211 2092 211 1363 
C 211 595 768 -64 1517 -64 
C 1946 -64 2253 76 2502 243 
L 2464 665 
C 2189 454 1869 339 1523 339 
C 1024 339 698 774 698 1369 
C 698 1830 909 2412 1549 2412 
C 1901 2412 2099 2342 2394 2143 
L 2464 2540 
z
" transform="scale(0.015625)"/>
        <path id="CMSS17-6f" d="M 2829 1356 
C 2829 2175 2221 2816 1504 2816 
C 768 2816 173 2156 173 1356 
C 173 544 787 -64 1498 -64 
C 2227 -64 2829 563 2829 1356 
z
M 1504 339 
C 1050 339 659 710 659 1407 
C 659 2150 1114 2425 1498 2425 
C 1914 2425 2342 2124 2342 1407 
C 2342 684 1926 339 1504 339 
z
" transform="scale(0.015625)"/>
        <path id="CMSS17-74" d="M 1069 2380 
L 1901 2380 
L 1901 2752 
L 1069 2752 
L 1069 3520 
L 614 3520 
L 614 2752 
L 109 2752 
L 109 2380 
L 602 2380 
L 602 751 
C 602 384 685 -64 1107 -64 
C 1427 -64 1722 25 2003 172 
L 1901 551 
C 1747 416 1562 339 1363 339 
C 1082 339 1069 699 1069 860 
L 1069 2380 
z
" transform="scale(0.015625)"/>
        <path id="CMSS17-73" d="M 2061 2623 
C 1683 2803 1389 2816 1197 2816 
C 742 2816 198 2655 198 2009 
C 198 1363 902 1222 1094 1183 
C 1389 1126 1715 1062 1715 742 
C 1715 339 1254 339 1171 339 
C 915 339 563 409 243 639 
L 166 211 
C 531 0 883 -64 1178 -64 
C 1965 -64 2163 416 2163 780 
C 2163 1094 1984 1305 1862 1401 
C 1651 1567 1574 1587 1050 1695 
C 960 1708 646 1779 646 2067 
C 646 2431 1050 2431 1139 2431 
C 1555 2431 1811 2303 1984 2207 
L 2061 2623 
z
" transform="scale(0.015625)"/>
        <path id="CMSS17-62" d="M 954 4416 
L 480 4416 
L 480 -13 
L 966 -13 
L 966 275 
C 1210 38 1504 -64 1766 -64 
C 2381 -64 2880 559 2880 1382 
C 2880 2133 2496 2816 1926 2816 
C 1523 2816 1165 2649 954 2476 
L 954 4416 
z
M 966 2095 
C 1107 2276 1306 2425 1587 2425 
C 1965 2425 2394 2146 2394 1382 
C 2394 566 1882 326 1530 326 
C 1402 326 1267 358 1139 468 
C 966 624 966 721 966 812 
L 966 2095 
z
" transform="scale(0.015625)"/>
        <path id="CMSS17-6c" d="M 947 4416 
L 474 4416 
L 474 0 
L 947 0 
L 947 4416 
z
" transform="scale(0.015625)"/>
        <path id="CMSS17-75" d="M 2618 2752 
L 2131 2752 
L 2131 976 
C 2131 500 1786 307 1421 307 
C 998 307 960 448 960 712 
L 960 2752 
L 474 2752 
L 474 680 
C 474 179 646 -64 1088 -64 
C 1306 -64 1798 -13 2144 307 
L 2144 -13 
L 2618 -13 
L 2618 2752 
z
" transform="scale(0.015625)"/>
        <path id="CMSS17-b" d="M 1075 2380 
L 1734 2380 
L 1734 2752 
L 1062 2752 
L 1062 3563 
C 1062 4000 1395 4089 1613 4089 
C 1837 4089 2022 4032 2093 4007 
L 2093 4428 
C 2022 4441 1830 4480 1619 4480 
C 1030 4480 602 4000 602 3366 
L 602 2752 
L 160 2752 
L 160 2380 
L 602 2380 
L 602 0 
L 1075 0 
L 1075 2380 
z
M 2739 2380 
L 3398 2380 
L 3398 2752 
L 2726 2752 
L 2726 3563 
C 2726 4000 3059 4089 3277 4089 
C 3501 4089 3686 4032 3757 4007 
L 3757 4428 
C 3686 4441 3494 4480 3283 4480 
C 2694 4480 2266 4000 2266 3366 
L 2266 0 
L 2739 0 
L 2739 2380 
z
" transform="scale(0.015625)"/>
       </defs>
       <use xlink:href="#CMSS17-53" transform="scale(0.996264)"/>
       <use xlink:href="#CMSS17-63" transform="translate(52.048516 0) scale(0.996264)"/>
       <use xlink:href="#CMSS17-6f" transform="translate(93.687338 0) scale(0.996264)"/>
       <use xlink:href="#CMSS17-74" transform="translate(140.530962 0) scale(0.996264)"/>
       <use xlink:href="#CMSS17-74" transform="translate(174.362528 0) scale(0.996264)"/>
       <use xlink:href="#CMSS17-73" transform="translate(208.194095 0) scale(0.996264)"/>
       <use xlink:href="#CMSS17-62" transform="translate(244.107637 0) scale(0.996264)"/>
       <use xlink:href="#CMSS17-6c" transform="translate(292.31258 0) scale(0.996264)"/>
       <use xlink:href="#CMSS17-75" transform="translate(314.493303 0) scale(0.996264)"/>
       <use xlink:href="#CMSS17-b" transform="translate(362.698246 0) scale(0.996264)"/>
      </g>
     </g>
    </g>
    <g id="xtick_2">
     <g id="text_2">
      <!-- North Platte -->
      <g style="fill: #262626" transform="translate(138.309089 14.810347) scale(0.11 -0.11)">
       <defs>
        <path id="CMSS17-4e" d="M 1466 4179 
L 1350 4416 
L 563 4416 
L 563 0 
L 1062 0 
L 1062 3925 
L 1069 3931 
C 1114 3817 1139 3759 1402 3193 
L 2771 236 
L 2886 0 
L 3674 0 
L 3674 4416 
L 3174 4416 
L 3174 490 
L 3168 484 
C 3123 598 3098 655 2835 1222 
L 1466 4179 
z
" transform="scale(0.015625)"/>
        <path id="CMSS17-72" d="M 954 1369 
C 954 1974 1395 2379 1958 2392 
L 1958 2816 
C 1549 2809 1165 2604 934 2270 
L 934 2783 
L 480 2783 
L 480 0 
L 954 0 
L 954 1369 
z
" transform="scale(0.015625)"/>
        <path id="CMSS17-68" d="M 2618 1878 
C 2618 2283 2522 2816 1798 2816 
C 1395 2816 1133 2617 947 2399 
L 947 4416 
L 474 4416 
L 474 0 
L 960 0 
L 960 1556 
C 960 1962 1114 2425 1549 2425 
C 2112 2425 2131 2045 2131 1826 
L 2131 0 
L 2618 0 
L 2618 1878 
z
" transform="scale(0.015625)"/>
        <path id="CMSS17-50" d="M 2106 1856 
C 2874 1856 3501 2447 3501 3139 
C 3501 3818 2899 4416 2067 4416 
L 570 4416 
L 570 0 
L 1107 0 
L 1107 1856 
L 2106 1856 
z
M 1926 4057 
C 2669 4057 2995 3598 2995 3139 
C 2995 2711 2694 2227 1926 2227 
L 1094 2227 
L 1094 4057 
L 1926 4057 
z
" transform="scale(0.015625)"/>
        <path id="CMSS17-61" d="M 2406 1789 
C 2406 2399 1978 2816 1402 2816 
C 1120 2816 813 2764 461 2559 
L 499 2133 
C 659 2250 934 2438 1395 2438 
C 1722 2438 1920 2185 1920 1782 
L 1920 1536 
C 896 1504 256 1209 256 711 
C 256 452 416 -64 947 -64 
C 1043 -64 1562 -52 1933 224 
L 1933 -13 
L 2406 -13 
L 2406 1789 
z
M 1920 824 
C 1920 711 1920 559 1728 446 
C 1562 339 1350 326 1261 326 
C 941 326 723 503 723 723 
C 723 1165 1722 1209 1920 1216 
L 1920 824 
z
" transform="scale(0.015625)"/>
        <path id="CMSS17-65" d="M 2502 1375 
C 2502 1587 2490 2001 2285 2347 
C 2061 2713 1696 2816 1421 2816 
C 755 2816 192 2184 192 1363 
C 192 579 774 -64 1510 -64 
C 1798 -64 2150 19 2470 249 
C 2470 275 2458 414 2451 421 
C 2451 433 2432 629 2432 655 
C 2125 408 1773 326 1517 326 
C 1107 326 666 667 646 1375 
L 2502 1375 
z
M 698 1728 
C 781 2086 1062 2425 1421 2425 
C 1517 2425 1965 2412 2080 1728 
L 698 1728 
z
" transform="scale(0.015625)"/>
       </defs>
       <use xlink:href="#CMSS17-4e" transform="scale(0.996264)"/>
       <use xlink:href="#CMSS17-6f" transform="translate(66.061519 0) scale(0.996264)"/>
       <use xlink:href="#CMSS17-72" transform="translate(110.302689 0) scale(0.996264)"/>
       <use xlink:href="#CMSS17-74" transform="translate(142.212461 0) scale(0.996264)"/>
       <use xlink:href="#CMSS17-68" transform="translate(176.044028 0) scale(0.996264)"/>
       <use xlink:href="#CMSS17-50" transform="translate(255.478084 0) scale(0.996264)"/>
       <use xlink:href="#CMSS17-6c" transform="translate(315.21367 0) scale(0.996264)"/>
       <use xlink:href="#CMSS17-61" transform="translate(337.394393 0) scale(0.996264)"/>
       <use xlink:href="#CMSS17-74" transform="translate(382.316314 0) scale(0.996264)"/>
       <use xlink:href="#CMSS17-74" transform="translate(416.147881 0) scale(0.996264)"/>
       <use xlink:href="#CMSS17-65" transform="translate(449.979447 0) scale(0.996264)"/>
      </g>
     </g>
    </g>
    <g id="xtick_3">
     <g id="text_3">
      <!-- Lincoln -->
      <g style="fill: #262626" transform="translate(215.260731 14.810347) scale(0.11 -0.11)">
       <defs>
        <path id="CMSS17-4c" d="M 1670 416 
C 1594 416 1517 409 1440 409 
L 1101 409 
L 1101 4416 
L 563 4416 
L 563 0 
L 3002 0 
L 3002 416 
L 1670 416 
z
" transform="scale(0.015625)"/>
        <path id="CMSS17-69" d="M 979 4224 
L 442 4224 
L 442 3686 
L 979 3686 
L 979 4224 
z
M 947 2752 
L 474 2752 
L 474 0 
L 947 0 
L 947 2752 
z
" transform="scale(0.015625)"/>
        <path id="CMSS17-6e" d="M 2618 1878 
C 2618 2283 2522 2816 1798 2816 
C 1389 2816 1120 2604 941 2386 
L 941 2783 
L 474 2783 
L 474 0 
L 960 0 
L 960 1556 
C 960 1962 1114 2425 1549 2425 
C 2112 2425 2131 2045 2131 1826 
L 2131 0 
L 2618 0 
L 2618 1878 
z
" transform="scale(0.015625)"/>
       </defs>
       <use xlink:href="#CMSS17-4c" transform="scale(0.996264)"/>
       <use xlink:href="#CMSS17-69" transform="translate(50.687105 0) scale(0.996264)"/>
       <use xlink:href="#CMSS17-6e" transform="translate(72.867828 0) scale(0.996264)"/>
       <use xlink:href="#CMSS17-63" transform="translate(121.072772 0) scale(0.996264)"/>
       <use xlink:href="#CMSS17-6f" transform="translate(162.711594 0) scale(0.996264)"/>
       <use xlink:href="#CMSS17-6c" transform="translate(209.555217 0) scale(0.996264)"/>
       <use xlink:href="#CMSS17-6e" transform="translate(231.73594 0) scale(0.996264)"/>
      </g>
     </g>
    </g>
    <g id="xtick_4">
     <g id="text_4">
      <!-- Missouri Valley -->
      <g style="fill: #262626" transform="translate(261.649158 14.810347) scale(0.11 -0.11)">
       <defs>
        <path id="CMSS17-4d" d="M 3194 2373 
L 2886 1476 
C 2835 1311 2662 795 2624 592 
L 2618 592 
C 2598 719 2560 853 2458 1177 
C 2400 1368 2336 1565 2272 1743 
L 1325 4416 
L 576 4416 
L 576 0 
L 1075 0 
L 1075 3899 
L 1082 3899 
C 1082 3893 1139 3613 1530 2500 
L 2374 102 
L 2848 102 
L 3610 2233 
C 3661 2379 3821 2843 3891 3066 
C 3955 3257 4115 3728 4154 3912 
L 4160 3912 
L 4160 0 
L 4666 0 
L 4666 4416 
L 3923 4416 
L 3194 2373 
z
" transform="scale(0.015625)"/>
        <path id="CMSS17-56" d="M 3910 4416 
L 3411 4416 
L 2304 1361 
C 2272 1272 2074 687 2035 484 
L 2029 484 
C 1978 725 1773 1291 1664 1603 
L 922 3670 
L 646 4416 
L 83 4416 
L 1715 0 
L 2278 0 
L 3910 4416 
z
" transform="scale(0.015625)"/>
        <path id="CMSS17-79" d="M 2675 2752 
L 2176 2752 
C 1632 1293 1446 701 1434 383 
L 1427 383 
C 1408 695 1126 1459 902 2006 
L 602 2752 
L 83 2752 
L 1216 14 
C 1146 -177 1043 -464 1011 -527 
C 870 -884 774 -884 672 -884 
C 646 -884 442 -877 211 -807 
L 250 -1229 
C 410 -1261 570 -1280 685 -1280 
C 845 -1280 1165 -1280 1459 -495 
L 2675 2752 
z
" transform="scale(0.015625)"/>
       </defs>
       <use xlink:href="#CMSS17-4d" transform="scale(0.996264)"/>
       <use xlink:href="#CMSS17-69" transform="translate(81.67603 0) scale(0.996264)"/>
       <use xlink:href="#CMSS17-73" transform="translate(103.856753 0) scale(0.996264)"/>
       <use xlink:href="#CMSS17-73" transform="translate(139.770295 0) scale(0.996264)"/>
       <use xlink:href="#CMSS17-6f" transform="translate(175.683837 0) scale(0.996264)"/>
       <use xlink:href="#CMSS17-75" transform="translate(222.52746 0) scale(0.996264)"/>
       <use xlink:href="#CMSS17-72" transform="translate(270.732404 0) scale(0.996264)"/>
       <use xlink:href="#CMSS17-69" transform="translate(302.642176 0) scale(0.996264)"/>
       <use xlink:href="#CMSS17-56" transform="translate(356.052012 0) scale(0.996264)"/>
       <use xlink:href="#CMSS17-61" transform="translate(415.667413 0) scale(0.996264)"/>
       <use xlink:href="#CMSS17-6c" transform="translate(460.589334 0) scale(0.996264)"/>
       <use xlink:href="#CMSS17-6c" transform="translate(482.770057 0) scale(0.996264)"/>
       <use xlink:href="#CMSS17-65" transform="translate(504.95078 0) scale(0.996264)"/>
       <use xlink:href="#CMSS17-79" transform="translate(546.589602 0) scale(0.996264)"/>
      </g>
     </g>
    </g>
    <g id="xtick_5">
     <g id="text_5">
      <!-- Ames -->
      <g style="fill: #262626" transform="translate(348.265979 14.810347) scale(0.11 -0.11)">
       <defs>
        <path id="CMSS17-41" d="M 2272 4416 
L 1722 4416 
L 166 0 
L 653 0 
L 1101 1280 
L 2816 1280 
L 3270 0 
L 3827 0 
L 2272 4416 
z
M 2694 1638 
L 1222 1638 
C 1530 2530 1914 3638 1958 3924 
L 1965 3924 
C 2010 3663 2138 3281 2246 2956 
L 2694 1638 
z
" transform="scale(0.015625)"/>
        <path id="CMSS17-6d" d="M 4288 1878 
C 4288 2309 4179 2816 3462 2816 
C 2982 2816 2694 2515 2566 2328 
C 2451 2668 2182 2816 1798 2816 
C 1363 2816 1088 2566 941 2386 
L 941 2783 
L 474 2783 
L 474 0 
L 960 0 
L 960 1556 
C 960 1936 1101 2425 1555 2425 
C 2138 2425 2138 2013 2138 1826 
L 2138 0 
L 2624 0 
L 2624 1556 
C 2624 1936 2765 2425 3219 2425 
C 3802 2425 3802 2013 3802 1826 
L 3802 0 
L 4288 0 
L 4288 1878 
z
" transform="scale(0.015625)"/>
       </defs>
       <use xlink:href="#CMSS17-41" transform="scale(0.996264)"/>
       <use xlink:href="#CMSS17-6d" transform="translate(62.217855 0) scale(0.996264)"/>
       <use xlink:href="#CMSS17-65" transform="translate(136.447109 0) scale(0.996264)"/>
       <use xlink:href="#CMSS17-73" transform="translate(178.085931 0) scale(0.996264)"/>
      </g>
     </g>
    </g>
    <g id="xtick_6">
     <g id="text_6">
      <!-- Crawfordville -->
      <g style="fill: #262626" transform="translate(395.917735 14.810347) scale(0.11 -0.11)">
       <defs>
        <path id="CMSS17-43" d="M 3501 705 
C 3072 416 2874 332 2355 332 
C 1459 332 934 1304 934 2191 
C 934 3137 1472 4070 2381 4070 
C 2790 4070 3059 3954 3386 3748 
L 3475 4255 
C 3168 4409 2778 4480 2387 4480 
C 1158 4480 397 3343 397 2191 
C 397 924 1299 -77 2323 -77 
C 2874 -77 3066 -32 3539 268 
L 3501 705 
z
" transform="scale(0.015625)"/>
        <path id="CMSS17-77" d="M 4013 2752 
L 3526 2752 
L 3187 1600 
C 3117 1356 2918 684 2893 371 
L 2886 371 
C 2874 563 2765 1024 2586 1632 
L 2259 2752 
L 1818 2752 
L 1498 1657 
C 1338 1100 1216 627 1203 371 
L 1197 371 
C 1171 748 909 1632 870 1772 
L 582 2752 
L 83 2752 
L 915 0 
L 1402 0 
C 1734 1100 1990 1952 2010 2380 
C 2022 2169 2131 1715 2195 1491 
L 2618 0 
L 3181 0 
L 4013 2752 
z
" transform="scale(0.015625)"/>
        <path id="CMSS17-66" d="M 1075 2380 
L 1722 2380 
L 1722 2752 
L 1062 2752 
L 1062 3563 
C 1062 4013 1408 4089 1606 4089 
C 1670 4089 1850 4089 2080 4007 
L 2080 4428 
C 1933 4460 1754 4480 1613 4480 
C 1018 4480 602 3994 602 3366 
L 602 2752 
L 160 2752 
L 160 2380 
L 602 2380 
L 602 0 
L 1075 0 
L 1075 2380 
z
" transform="scale(0.015625)"/>
        <path id="CMSS17-64" d="M 2611 4416 
L 2138 4416 
L 2138 2495 
C 1939 2662 1613 2816 1254 2816 
C 672 2816 211 2179 211 1375 
C 211 572 666 -64 1235 -64 
C 1677 -64 1971 172 2125 307 
L 2125 -13 
L 2611 -13 
L 2611 4416 
z
M 2125 851 
C 2125 760 2125 663 1926 488 
C 1798 378 1645 326 1498 326 
C 1152 326 698 585 698 1369 
C 698 2185 1210 2425 1562 2425 
C 1798 2425 1990 2308 2125 2114 
L 2125 851 
z
" transform="scale(0.015625)"/>
        <path id="CMSS17-76" d="M 2675 2752 
L 2176 2752 
L 1747 1555 
C 1613 1164 1421 627 1389 352 
L 1382 352 
C 1370 467 1318 633 1286 748 
C 1248 889 1197 1056 1158 1171 
L 595 2752 
L 83 2752 
L 1094 0 
L 1664 0 
L 2675 2752 
z
" transform="scale(0.015625)"/>
       </defs>
       <use xlink:href="#CMSS17-43" transform="scale(0.996264)"/>
       <use xlink:href="#CMSS17-72" transform="translate(59.855772 0) scale(0.996264)"/>
       <use xlink:href="#CMSS17-61" transform="translate(91.765544 0) scale(0.996264)"/>
       <use xlink:href="#CMSS17-77" transform="translate(134.085011 0) scale(0.996264)"/>
       <use xlink:href="#CMSS17-66" transform="translate(197.904556 0) scale(0.996264)"/>
       <use xlink:href="#CMSS17-6f" transform="translate(226.531215 0) scale(0.996264)"/>
       <use xlink:href="#CMSS17-72" transform="translate(270.772384 0) scale(0.996264)"/>
       <use xlink:href="#CMSS17-64" transform="translate(302.682157 0) scale(0.996264)"/>
       <use xlink:href="#CMSS17-76" transform="translate(350.8871 0) scale(0.996264)"/>
       <use xlink:href="#CMSS17-69" transform="translate(393.887242 0) scale(0.996264)"/>
       <use xlink:href="#CMSS17-6c" transform="translate(416.067965 0) scale(0.996264)"/>
       <use xlink:href="#CMSS17-6c" transform="translate(438.248688 0) scale(0.996264)"/>
       <use xlink:href="#CMSS17-65" transform="translate(460.429411 0) scale(0.996264)"/>
      </g>
     </g>
    </g>
   </g>
   <g id="matplotlib.axis_2">
    <g id="ytick_1">
     <g id="text_7">
      <!-- June -->
      <g style="fill: #262626" transform="translate(34.566872 36.109272) scale(0.11 -0.11)">
       <defs>
        <path id="CMSS17-4a" d="M 2336 4416 
L 1811 4416 
L 1811 947 
C 1811 640 1683 262 1107 262 
C 781 262 506 416 333 608 
L 250 140 
C 646 -71 1011 -128 1280 -128 
C 1901 -128 2336 230 2336 928 
L 2336 4416 
z
" transform="scale(0.015625)"/>
       </defs>
       <use xlink:href="#CMSS17-4a" transform="scale(0.996264)"/>
       <use xlink:href="#CMSS17-75" transform="translate(44.121076 0) scale(0.996264)"/>
       <use xlink:href="#CMSS17-6e" transform="translate(92.326019 0) scale(0.996264)"/>
       <use xlink:href="#CMSS17-65" transform="translate(140.530962 0) scale(0.996264)"/>
      </g>
     </g>
    </g>
    <g id="ytick_2">
     <g id="text_8">
      <!-- July -->
      <g style="fill: #262626" transform="translate(37.428379 131.766415) scale(0.11 -0.11)">
       <use xlink:href="#CMSS17-4a" transform="scale(0.996264)"/>
       <use xlink:href="#CMSS17-75" transform="translate(44.121076 0) scale(0.996264)"/>
       <use xlink:href="#CMSS17-6c" transform="translate(92.326019 0) scale(0.996264)"/>
       <use xlink:href="#CMSS17-79" transform="translate(114.506742 0) scale(0.996264)"/>
      </g>
     </g>
    </g>
    <g id="ytick_3">
     <g id="text_9">
      <!-- August -->
      <g style="fill: #262626" transform="translate(23.668836 227.423558) scale(0.11 -0.11)">
       <defs>
        <path id="CMSS17-67" d="M 2848 2816 
C 2483 2809 2170 2739 1914 2617 
C 1702 2783 1485 2816 1338 2816 
C 781 2816 358 2356 358 1824 
C 358 1481 550 1222 563 1209 
C 448 1049 384 876 384 684 
C 384 460 474 300 544 211 
C 211 6 166 -308 166 -429 
C 166 -896 749 -1280 1498 -1280 
C 2253 -1280 2835 -896 2835 -423 
C 2835 460 1856 467 1587 467 
L 1069 467 
C 973 467 717 467 717 793 
C 717 921 774 1004 781 1011 
C 877 940 1075 832 1338 832 
C 1869 832 2310 1279 2310 1824 
C 2310 2128 2170 2349 2112 2425 
L 2131 2425 
C 2150 2425 2419 2444 2515 2444 
C 2720 2444 2739 2438 2918 2419 
L 2848 2816 
z
M 1338 1184 
C 1120 1184 813 1317 813 1824 
C 813 2375 1165 2463 1331 2463 
C 1549 2463 1856 2330 1856 1824 
C 1856 1272 1504 1184 1338 1184 
z
M 1581 0 
C 1734 0 2381 0 2381 -436 
C 2381 -711 1984 -928 1504 -928 
C 1018 -928 621 -717 621 -429 
C 621 -397 621 0 1062 0 
L 1581 0 
z
" transform="scale(0.015625)"/>
       </defs>
       <use xlink:href="#CMSS17-41" transform="scale(0.996264)"/>
       <use xlink:href="#CMSS17-75" transform="translate(62.217855 0) scale(0.996264)"/>
       <use xlink:href="#CMSS17-67" transform="translate(110.422798 0) scale(0.996264)"/>
       <use xlink:href="#CMSS17-75" transform="translate(157.266422 0) scale(0.996264)"/>
       <use xlink:href="#CMSS17-73" transform="translate(205.471365 0) scale(0.996264)"/>
       <use xlink:href="#CMSS17-74" transform="translate(241.384907 0) scale(0.996264)"/>
      </g>
     </g>
    </g>
    <g id="ytick_4">
     <g id="text_10">
      <!-- September -->
      <g style="fill: #262626" transform="translate(7.2 319.994986) scale(0.11 -0.11)">
       <defs>
        <path id="CMSS17-70" d="M 966 275 
C 1178 70 1466 -64 1773 -64 
C 2368 -64 2880 553 2880 1382 
C 2880 2147 2496 2816 1946 2816 
C 1626 2816 1242 2700 954 2470 
L 954 2764 
L 480 2764 
L 480 -1280 
L 966 -1280 
L 966 275 
z
M 966 2088 
C 1018 2166 1235 2412 1587 2412 
C 2035 2412 2394 1946 2394 1382 
C 2394 741 1958 326 1530 326 
C 1402 326 1267 358 1139 468 
C 966 624 966 721 966 812 
L 966 2088 
z
" transform="scale(0.015625)"/>
       </defs>
       <use xlink:href="#CMSS17-53" transform="scale(0.996264)"/>
       <use xlink:href="#CMSS17-65" transform="translate(52.048516 0) scale(0.996264)"/>
       <use xlink:href="#CMSS17-70" transform="translate(93.687338 0) scale(0.996264)"/>
       <use xlink:href="#CMSS17-74" transform="translate(141.892281 0) scale(0.996264)"/>
       <use xlink:href="#CMSS17-65" transform="translate(175.723848 0) scale(0.996264)"/>
       <use xlink:href="#CMSS17-6d" transform="translate(217.36267 0) scale(0.996264)"/>
       <use xlink:href="#CMSS17-62" transform="translate(291.591925 0) scale(0.996264)"/>
       <use xlink:href="#CMSS17-65" transform="translate(342.399306 0) scale(0.996264)"/>
       <use xlink:href="#CMSS17-72" transform="translate(384.038129 0) scale(0.996264)"/>
      </g>
     </g>
    </g>
   </g>
   <g id="PathCollection_1"/>
   <g id="PathCollection_2"/>
   <g id="PolyCollection_1">
    <defs>
     <path id="m4b1281e090" d="M 121.928528 -272.262857 
L 83.191338 -272.262857 
L 83.191338 -241.405714 
L 121.928528 -241.405714 
L 121.928528 -241.405714 
L 121.928528 -272.262857 
z
" style="stroke: #a52a2a; stroke-opacity: 0.1"/>
    </defs>
    <g clip-path="url(#p4606555782)">
     <use xlink:href="#m4b1281e090" x="0" y="366.281241" style="fill: #a52a2a; fill-opacity: 0.1; stroke: #a52a2a; stroke-opacity: 0.1"/>
    </g>
   </g>
   <g id="LineCollection_1">
    <path d="M 102.559933 26.441241 
L 102.559933 359.081241 
" clip-path="url(#p4606555782)" style="fill: none; stroke: #000000; stroke-width: 2"/>
    <path d="M 167.121917 26.441241 
L 167.121917 359.081241 
" clip-path="url(#p4606555782)" style="fill: none; stroke: #000000; stroke-width: 2"/>
    <path d="M 231.6839 26.441241 
L 231.6839 359.081241 
" clip-path="url(#p4606555782)" style="fill: none; stroke: #000000; stroke-width: 2"/>
    <path d="M 296.245884 26.441241 
L 296.245884 359.081241 
" clip-path="url(#p4606555782)" style="fill: none; stroke: #000000; stroke-width: 2"/>
    <path d="M 360.807867 26.441241 
L 360.807867 359.081241 
" clip-path="url(#p4606555782)" style="fill: none; stroke: #000000; stroke-width: 2"/>
    <path d="M 425.369851 26.441241 
L 425.369851 359.081241 
" clip-path="url(#p4606555782)" style="fill: none; stroke: #000000; stroke-width: 2"/>
   </g>
   <g id="patch_3">
    <path d="M 65.436793 359.081241 
L 65.436793 26.441241 
" style="fill: none; stroke: #000000; stroke-width: 1.25; stroke-linejoin: miter; stroke-linecap: square"/>
   </g>
   <g id="PathCollection_3">
    <path d="M 82.147536 44.646956 
L 97.147536 52.146956 
L 97.147536 37.146956 
z
" clip-path="url(#p4606555782)" style="fill: #905020"/>
    <path d="M 82.147536 84.761241 
L 97.147536 92.261241 
L 97.147536 77.261241 
z
" clip-path="url(#p4606555782)" style="fill: #905020"/>
    <path d="M 82.147536 149.561241 
L 97.147536 157.061241 
L 97.147536 142.061241 
z
" clip-path="url(#p4606555782)" style="fill: #905020"/>
    <path d="M 82.147536 183.504098 
L 97.147536 191.004098 
L 97.147536 176.004098 
z
" clip-path="url(#p4606555782)" style="fill: #905020"/>
    <path d="M 82.147536 251.389813 
L 97.147536 258.889813 
L 97.147536 243.889813 
z
" clip-path="url(#p4606555782)" style="fill: #905020"/>
    <path d="M 82.147536 297.675527 
L 97.147536 305.175527 
L 97.147536 290.175527 
z
" clip-path="url(#p4606555782)" style="fill: #905020"/>
   </g>
   <g id="PathCollection_4">
    <path d="M 107.97233 56.989813 
L 122.97233 64.489813 
L 122.97233 49.489813 
z
" clip-path="url(#p4606555782)" style="fill: #56b567"/>
    <path d="M 107.97233 100.189813 
L 122.97233 107.689813 
L 122.97233 92.689813 
z
" clip-path="url(#p4606555782)" style="fill: #56b567"/>
    <path d="M 107.97233 164.989813 
L 122.97233 172.489813 
L 122.97233 157.489813 
z
" clip-path="url(#p4606555782)" style="fill: #56b567"/>
   </g>
   <g id="PathCollection_5">
    <path d="M 211.271503 87.846956 
L 226.271503 95.346956 
L 226.271503 80.346956 
z
" clip-path="url(#p4606555782)" style="fill: #905020"/>
    <path d="M 211.271503 146.475527 
L 226.271503 153.975527 
L 226.271503 138.975527 
z
" clip-path="url(#p4606555782)" style="fill: #905020"/>
    <path d="M 211.271503 232.875527 
L 226.271503 240.375527 
L 226.271503 225.375527 
z
" clip-path="url(#p4606555782)" style="fill: #905020"/>
    <path d="M 211.271503 257.561241 
L 226.271503 265.061241 
L 226.271503 250.061241 
z
" clip-path="url(#p4606555782)" style="fill: #905020"/>
    <path d="M 211.271503 282.246956 
L 226.271503 289.746956 
L 226.271503 274.746956 
z
" clip-path="url(#p4606555782)" style="fill: #905020"/>
    <path d="M 211.271503 306.93267 
L 226.271503 314.43267 
L 226.271503 299.43267 
z
" clip-path="url(#p4606555782)" style="fill: #905020"/>
   </g>
   <g id="PathCollection_6">
    <path d="M 237.096297 41.561241 
L 252.096297 49.061241 
L 252.096297 34.061241 
z
" clip-path="url(#p4606555782)" style="fill: #56b567"/>
    <path d="M 237.096297 118.704098 
L 252.096297 126.204098 
L 252.096297 111.204098 
z
" clip-path="url(#p4606555782)" style="fill: #56b567"/>
    <path d="M 237.096297 140.304098 
L 252.096297 147.804098 
L 252.096297 132.804098 
z
" clip-path="url(#p4606555782)" style="fill: #56b567"/>
   </g>
   <g id="PathCollection_7">
    <path d="M 275.833487 72.418384 
L 290.833487 79.918384 
L 290.833487 64.918384 
z
" clip-path="url(#p4606555782)" style="fill: #905020"/>
    <path d="M 275.833487 97.104098 
L 290.833487 104.604098 
L 290.833487 89.604098 
z
" clip-path="url(#p4606555782)" style="fill: #905020"/>
    <path d="M 275.833487 152.646956 
L 290.833487 160.146956 
L 290.833487 145.146956 
z
" clip-path="url(#p4606555782)" style="fill: #905020"/>
    <path d="M 275.833487 232.875527 
L 290.833487 240.375527 
L 290.833487 225.375527 
z
" clip-path="url(#p4606555782)" style="fill: #905020"/>
    <path d="M 275.833487 257.561241 
L 290.833487 265.061241 
L 290.833487 250.061241 
z
" clip-path="url(#p4606555782)" style="fill: #905020"/>
    <path d="M 275.833487 282.246956 
L 290.833487 289.746956 
L 290.833487 274.746956 
z
" clip-path="url(#p4606555782)" style="fill: #905020"/>
   </g>
   <g id="PathCollection_8">
    <path d="M 301.65828 72.418384 
L 316.65828 79.918384 
L 316.65828 64.918384 
z
" clip-path="url(#p4606555782)" style="fill: #56b567"/>
    <path d="M 301.65828 115.618384 
L 316.65828 123.118384 
L 316.65828 108.118384 
z
" clip-path="url(#p4606555782)" style="fill: #56b567"/>
    <path d="M 301.65828 158.818384 
L 316.65828 166.318384 
L 316.65828 151.318384 
z
" clip-path="url(#p4606555782)" style="fill: #56b567"/>
   </g>
   <g id="PathCollection_9">
    <path d="M 340.39547 78.589813 
L 355.39547 86.089813 
L 355.39547 71.089813 
z
" clip-path="url(#p4606555782)" style="fill: #905020"/>
    <path d="M 340.39547 103.275527 
L 355.39547 110.775527 
L 355.39547 95.775527 
z
" clip-path="url(#p4606555782)" style="fill: #905020"/>
    <path d="M 340.39547 158.818384 
L 355.39547 166.318384 
L 355.39547 151.318384 
z
" clip-path="url(#p4606555782)" style="fill: #905020"/>
    <path d="M 340.39547 223.618384 
L 355.39547 231.118384 
L 355.39547 216.118384 
z
" clip-path="url(#p4606555782)" style="fill: #905020"/>
    <path d="M 340.39547 257.561241 
L 355.39547 265.061241 
L 355.39547 250.061241 
z
" clip-path="url(#p4606555782)" style="fill: #905020"/>
    <path d="M 340.39547 297.675527 
L 355.39547 305.175527 
L 355.39547 290.175527 
z
" clip-path="url(#p4606555782)" style="fill: #905020"/>
   </g>
   <g id="PathCollection_10">
    <path d="M 7.5 367.281241 
L 7.5 358.781241 
L -1 363.031241 
" clip-path="url(#p4606555782)" style="fill: none"/>
   </g>
   <g id="PathCollection_11">
    <path d="M 404.957454 63.161241 
L 419.957454 70.661241 
L 419.957454 55.661241 
z
" clip-path="url(#p4606555782)" style="fill: #905020"/>
    <path d="M 404.957454 94.018384 
L 419.957454 101.518384 
L 419.957454 86.518384 
z
" clip-path="url(#p4606555782)" style="fill: #905020"/>
    <path d="M 404.957454 134.13267 
L 419.957454 141.63267 
L 419.957454 126.63267 
z
" clip-path="url(#p4606555782)" style="fill: #905020"/>
    <path d="M 404.957454 263.73267 
L 419.957454 271.23267 
L 419.957454 256.23267 
z
" clip-path="url(#p4606555782)" style="fill: #905020"/>
    <path d="M 404.957454 319.275527 
L 419.957454 326.775527 
L 419.957454 311.775527 
z
" clip-path="url(#p4606555782)" style="fill: #905020"/>
    <path d="M 404.957454 343.961241 
L 419.957454 351.461241 
L 419.957454 336.461241 
z
" clip-path="url(#p4606555782)" style="fill: #905020"/>
   </g>
   <g id="PathCollection_12">
    <path d="M 430.782247 69.33267 
L 445.782247 76.83267 
L 445.782247 61.83267 
z
" clip-path="url(#p4606555782)" style="fill: #56b567"/>
    <path d="M 430.782247 112.53267 
L 445.782247 120.03267 
L 445.782247 105.03267 
z
" clip-path="url(#p4606555782)" style="fill: #56b567"/>
    <path d="M 430.782247 161.904098 
L 445.782247 169.404098 
L 445.782247 154.404098 
z
" clip-path="url(#p4606555782)" style="fill: #56b567"/>
   </g>
   <g id="legend_1">
    <g id="patch_4">
     <path d="M 463.736793 65.903031 
L 535.801358 65.903031 
Q 538.001358 65.903031 538.001358 63.703031 
L 538.001358 34.141241 
Q 538.001358 31.941241 535.801358 31.941241 
L 463.736793 31.941241 
Q 461.536793 31.941241 461.536793 34.141241 
L 461.536793 63.703031 
Q 461.536793 65.903031 463.736793 65.903031 
z
" style="fill: #ffffff; opacity: 0.8; stroke: #cccccc; stroke-linejoin: miter"/>
    </g>
    <g id="PathCollection_13">
     <defs>
      <path id="m620b22278e" d="M 0 3 
C 0.795609 3 1.55874 2.683901 2.12132 2.12132 
C 2.683901 1.55874 3 0.795609 3 0 
C 3 -0.795609 2.683901 -1.55874 2.12132 -2.12132 
C 1.55874 -2.683901 0.795609 -3 0 -3 
C -0.795609 -3 -1.55874 -2.683901 -2.12132 -2.12132 
C -2.683901 -1.55874 -3 -0.795609 -3 0 
C -3 0.795609 -2.683901 1.55874 -2.12132 2.12132 
C -1.55874 2.683901 -0.795609 3 0 3 
z
" style="stroke: #905020"/>
     </defs>
     <g>
      <use xlink:href="#m620b22278e" x="476.936793" y="41.153741" style="fill: #905020; stroke: #905020"/>
     </g>
    </g>
    <g id="text_11">
     <!-- Satellite -->
     <g style="fill: #262626" transform="translate(496.736793 44.041241) scale(0.11 -0.11)">
      <use xlink:href="#CMSS17-53" transform="scale(0.996264)"/>
      <use xlink:href="#CMSS17-61" transform="translate(52.048516 0) scale(0.996264)"/>
      <use xlink:href="#CMSS17-74" transform="translate(96.970437 0) scale(0.996264)"/>
      <use xlink:href="#CMSS17-65" transform="translate(130.802003 0) scale(0.996264)"/>
      <use xlink:href="#CMSS17-6c" transform="translate(172.440826 0) scale(0.996264)"/>
      <use xlink:href="#CMSS17-6c" transform="translate(194.621549 0) scale(0.996264)"/>
      <use xlink:href="#CMSS17-69" transform="translate(216.802272 0) scale(0.996264)"/>
      <use xlink:href="#CMSS17-74" transform="translate(238.982995 0) scale(0.996264)"/>
      <use xlink:href="#CMSS17-65" transform="translate(272.814561 0) scale(0.996264)"/>
     </g>
    </g>
    <g id="PathCollection_14">
     <defs>
      <path id="m21c7f132b9" d="M 0 3 
C 0.795609 3 1.55874 2.683901 2.12132 2.12132 
C 2.683901 1.55874 3 0.795609 3 0 
C 3 -0.795609 2.683901 -1.55874 2.12132 -2.12132 
C 1.55874 -2.683901 0.795609 -3 0 -3 
C -0.795609 -3 -1.55874 -2.683901 -2.12132 -2.12132 
C -2.683901 -1.55874 -3 -0.795609 -3 0 
C -3 0.795609 -2.683901 1.55874 -2.12132 2.12132 
C -1.55874 2.683901 -0.795609 3 0 3 
z
" style="stroke: #56b567"/>
     </defs>
     <g>
      <use xlink:href="#m21c7f132b9" x="476.936793" y="56.484636" style="fill: #56b567; stroke: #56b567"/>
     </g>
    </g>
    <g id="text_12">
     <!-- UAV -->
     <g style="fill: #262626" transform="translate(496.736793 59.372136) scale(0.11 -0.11)">
      <defs>
       <path id="CMSS17-55" d="M 3552 4416 
L 3066 4416 
L 3066 1459 
C 3066 608 2547 230 2074 230 
C 1587 230 1101 627 1101 1452 
L 1101 4416 
L 563 4416 
L 563 1465 
C 563 544 1274 -128 2067 -128 
C 2861 -128 3552 544 3552 1465 
L 3552 4416 
z
" transform="scale(0.015625)"/>
      </defs>
      <use xlink:href="#CMSS17-55" transform="scale(0.996264)"/>
      <use xlink:href="#CMSS17-41" transform="translate(64.13974 0) scale(0.996264)"/>
      <use xlink:href="#CMSS17-56" transform="translate(115.947886 0) scale(0.996264)"/>
     </g>
    </g>
   </g>
  </g>
 </g>
 <defs>
  <clipPath id="p4606555782">
   <rect x="65.436793" y="26.441241" width="390.6" height="332.64"/>
  </clipPath>
 </defs>
</svg>
