<?xml version="1.0" encoding="utf-8" standalone="no"?>
<!DOCTYPE svg PUBLIC "-//W3C//DTD SVG 1.1//EN"
  "http://www.w3.org/Graphics/SVG/1.1/DTD/svg11.dtd">
<svg xmlns:xlink="http://www.w3.org/1999/xlink" width="1584pt" height="1008pt" viewBox="0 0 1584 1008" xmlns="http://www.w3.org/2000/svg" version="1.1">
 <metadata>
  <rdf:RDF xmlns:dc="http://purl.org/dc/elements/1.1/" xmlns:cc="http://creativecommons.org/ns#" xmlns:rdf="http://www.w3.org/1999/02/22-rdf-syntax-ns#">
   <cc:Work>
    <dc:type rdf:resource="http://purl.org/dc/dcmitype/StillImage"/>
    <dc:date>2024-03-28T14:13:12.678555</dc:date>
    <dc:format>image/svg+xml</dc:format>
    <dc:creator>
     <cc:Agent>
      <dc:title>Matplotlib v3.7.1, https://matplotlib.org/</dc:title>
     </cc:Agent>
    </dc:creator>
   </cc:Work>
  </rdf:RDF>
 </metadata>
 <defs>
  <style type="text/css">*{stroke-linejoin: round; stroke-linecap: butt}</style>
 </defs>
 <g id="figure_1">
  <g id="patch_1">
   <path d="M 0 1008 
L 1584 1008 
L 1584 0 
L 0 0 
z
" style="fill: #ffffff"/>
  </g>
  <g id="axes_1">
   <g id="patch_2">
    <path d="M 198 897.12 
L 1425.6 897.12 
L 1425.6 120.96 
L 198 120.96 
z
" style="fill: #ffffff"/>
   </g>
   <g id="PolyCollection_1">
    <defs>
     <path id="m5ac48e069f" d="M 253.8 -110.88 
L 253.8 -158.643692 
L 354.24 -158.643692 
L 354.24 -110.88 
z
" style="stroke: #008000"/>
    </defs>
    <g clip-path="url(#p1cbfdd1761)">
     <use xlink:href="#m5ac48e069f" x="0" y="1008" style="fill: #008000; stroke: #008000"/>
    </g>
   </g>
   <g id="PolyCollection_2">
    <defs>
     <path id="mfbf1fb1c4f" d="M 354.24 -110.88 
L 354.24 -158.643692 
L 610.92 -158.643692 
L 610.92 -110.88 
z
" style="stroke: #ffff00"/>
    </defs>
    <g clip-path="url(#p1cbfdd1761)">
     <use xlink:href="#mfbf1fb1c4f" x="0" y="1008" style="fill: #ffff00; stroke: #ffff00"/>
    </g>
   </g>
   <g id="PolyCollection_3">
    <defs>
     <path id="m7ade29c94f" d="M 610.92 -110.88 
L 610.92 -158.643692 
L 1280.52 -158.643692 
L 1280.52 -110.88 
z
" style="stroke: #ffa500"/>
    </defs>
    <g clip-path="url(#p1cbfdd1761)">
     <use xlink:href="#m7ade29c94f" x="0" y="1008" style="fill: #ffa500; stroke: #ffa500"/>
    </g>
   </g>
   <g id="matplotlib.axis_1">
    <g id="xtick_1">
     <g id="line2d_1">
      <defs>
       <path id="mc35ff246a4" d="M 0 0 
L 0 7 
" style="stroke: #000000; stroke-width: 5"/>
      </defs>
      <g>
       <use xlink:href="#mc35ff246a4" x="253.8" y="897.12" style="stroke: #000000; stroke-width: 5"/>
      </g>
     </g>
     <g id="text_1">
      <!-- July -->
      <g transform="translate(222.298623 935.294009) scale(0.4 -0.4)">
       <defs>
        <path id="CMSS17-4a" d="M 2336 4416 
L 1811 4416 
L 1811 947 
C 1811 640 1683 262 1107 262 
C 781 262 506 416 333 608 
L 250 140 
C 646 -71 1011 -128 1280 -128 
C 1901 -128 2336 230 2336 928 
L 2336 4416 
z
" transform="scale(0.015625)"/>
        <path id="CMSS17-75" d="M 2618 2752 
L 2131 2752 
L 2131 976 
C 2131 500 1786 307 1421 307 
C 998 307 960 448 960 712 
L 960 2752 
L 474 2752 
L 474 680 
C 474 179 646 -64 1088 -64 
C 1306 -64 1798 -13 2144 307 
L 2144 -13 
L 2618 -13 
L 2618 2752 
z
" transform="scale(0.015625)"/>
        <path id="CMSS17-6c" d="M 947 4416 
L 474 4416 
L 474 0 
L 947 0 
L 947 4416 
z
" transform="scale(0.015625)"/>
        <path id="CMSS17-79" d="M 2675 2752 
L 2176 2752 
C 1632 1293 1446 701 1434 383 
L 1427 383 
C 1408 695 1126 1459 902 2006 
L 602 2752 
L 83 2752 
L 1216 14 
C 1146 -177 1043 -464 1011 -527 
C 870 -884 774 -884 672 -884 
C 646 -884 442 -877 211 -807 
L 250 -1229 
C 410 -1261 570 -1280 685 -1280 
C 845 -1280 1165 -1280 1459 -495 
L 2675 2752 
z
" transform="scale(0.015625)"/>
       </defs>
       <use xlink:href="#CMSS17-4a" transform="scale(0.996264)"/>
       <use xlink:href="#CMSS17-75" transform="translate(44.121076 0) scale(0.996264)"/>
       <use xlink:href="#CMSS17-6c" transform="translate(92.326019 0) scale(0.996264)"/>
       <use xlink:href="#CMSS17-79" transform="translate(114.506742 0) scale(0.996264)"/>
      </g>
     </g>
    </g>
    <g id="xtick_2">
     <g id="line2d_2">
      <g>
       <use xlink:href="#mc35ff246a4" x="599.76" y="897.12" style="stroke: #000000; stroke-width: 5"/>
      </g>
     </g>
     <g id="text_2">
      <!-- August -->
      <g transform="translate(544.716717 935.294009) scale(0.4 -0.4)">
       <defs>
        <path id="CMSS17-41" d="M 2272 4416 
L 1722 4416 
L 166 0 
L 653 0 
L 1101 1280 
L 2816 1280 
L 3270 0 
L 3827 0 
L 2272 4416 
z
M 2694 1638 
L 1222 1638 
C 1530 2530 1914 3638 1958 3924 
L 1965 3924 
C 2010 3663 2138 3281 2246 2956 
L 2694 1638 
z
" transform="scale(0.015625)"/>
        <path id="CMSS17-67" d="M 2848 2816 
C 2483 2809 2170 2739 1914 2617 
C 1702 2783 1485 2816 1338 2816 
C 781 2816 358 2356 358 1824 
C 358 1481 550 1222 563 1209 
C 448 1049 384 876 384 684 
C 384 460 474 300 544 211 
C 211 6 166 -308 166 -429 
C 166 -896 749 -1280 1498 -1280 
C 2253 -1280 2835 -896 2835 -423 
C 2835 460 1856 467 1587 467 
L 1069 467 
C 973 467 717 467 717 793 
C 717 921 774 1004 781 1011 
C 877 940 1075 832 1338 832 
C 1869 832 2310 1279 2310 1824 
C 2310 2128 2170 2349 2112 2425 
L 2131 2425 
C 2150 2425 2419 2444 2515 2444 
C 2720 2444 2739 2438 2918 2419 
L 2848 2816 
z
M 1338 1184 
C 1120 1184 813 1317 813 1824 
C 813 2375 1165 2463 1331 2463 
C 1549 2463 1856 2330 1856 1824 
C 1856 1272 1504 1184 1338 1184 
z
M 1581 0 
C 1734 0 2381 0 2381 -436 
C 2381 -711 1984 -928 1504 -928 
C 1018 -928 621 -717 621 -429 
C 621 -397 621 0 1062 0 
L 1581 0 
z
" transform="scale(0.015625)"/>
        <path id="CMSS17-73" d="M 2061 2623 
C 1683 2803 1389 2816 1197 2816 
C 742 2816 198 2655 198 2009 
C 198 1363 902 1222 1094 1183 
C 1389 1126 1715 1062 1715 742 
C 1715 339 1254 339 1171 339 
C 915 339 563 409 243 639 
L 166 211 
C 531 0 883 -64 1178 -64 
C 1965 -64 2163 416 2163 780 
C 2163 1094 1984 1305 1862 1401 
C 1651 1567 1574 1587 1050 1695 
C 960 1708 646 1779 646 2067 
C 646 2431 1050 2431 1139 2431 
C 1555 2431 1811 2303 1984 2207 
L 2061 2623 
z
" transform="scale(0.015625)"/>
        <path id="CMSS17-74" d="M 1069 2380 
L 1901 2380 
L 1901 2752 
L 1069 2752 
L 1069 3520 
L 614 3520 
L 614 2752 
L 109 2752 
L 109 2380 
L 602 2380 
L 602 751 
C 602 384 685 -64 1107 -64 
C 1427 -64 1722 25 2003 172 
L 1901 551 
C 1747 416 1562 339 1363 339 
C 1082 339 1069 699 1069 860 
L 1069 2380 
z
" transform="scale(0.015625)"/>
       </defs>
       <use xlink:href="#CMSS17-41" transform="scale(0.996264)"/>
       <use xlink:href="#CMSS17-75" transform="translate(62.217855 0) scale(0.996264)"/>
       <use xlink:href="#CMSS17-67" transform="translate(110.422798 0) scale(0.996264)"/>
       <use xlink:href="#CMSS17-75" transform="translate(157.266422 0) scale(0.996264)"/>
       <use xlink:href="#CMSS17-73" transform="translate(205.471365 0) scale(0.996264)"/>
       <use xlink:href="#CMSS17-74" transform="translate(241.384907 0) scale(0.996264)"/>
      </g>
     </g>
    </g>
    <g id="xtick_3">
     <g id="line2d_3">
      <g>
       <use xlink:href="#mc35ff246a4" x="945.72" y="897.12" style="stroke: #000000; stroke-width: 5"/>
      </g>
     </g>
     <g id="text_3">
      <!-- September -->
      <g transform="translate(862.530435 935.294009) scale(0.4 -0.4)">
       <defs>
        <path id="CMSS17-53" d="M 2797 4230 
C 2515 4396 2208 4544 1690 4544 
C 864 4544 333 3934 333 3309 
C 333 3064 403 2787 653 2504 
C 902 2220 1184 2143 1542 2053 
C 1690 2014 1939 1943 1984 1924 
C 2342 1782 2515 1454 2515 1144 
C 2515 738 2202 307 1645 307 
C 1453 307 890 339 358 829 
L 269 320 
C 794 -64 1363 -128 1651 -128 
C 2438 -128 3002 494 3002 1202 
C 3002 1460 2925 1789 2656 2092 
C 2394 2381 2163 2446 1638 2588 
C 1338 2665 1146 2717 986 2916 
C 877 3058 819 3193 819 3367 
C 819 3728 1126 4121 1690 4121 
C 1971 4121 2336 4063 2707 3715 
L 2797 4230 
z
" transform="scale(0.015625)"/>
        <path id="CMSS17-65" d="M 2502 1375 
C 2502 1587 2490 2001 2285 2347 
C 2061 2713 1696 2816 1421 2816 
C 755 2816 192 2184 192 1363 
C 192 579 774 -64 1510 -64 
C 1798 -64 2150 19 2470 249 
C 2470 275 2458 414 2451 421 
C 2451 433 2432 629 2432 655 
C 2125 408 1773 326 1517 326 
C 1107 326 666 667 646 1375 
L 2502 1375 
z
M 698 1728 
C 781 2086 1062 2425 1421 2425 
C 1517 2425 1965 2412 2080 1728 
L 698 1728 
z
" transform="scale(0.015625)"/>
        <path id="CMSS17-70" d="M 966 275 
C 1178 70 1466 -64 1773 -64 
C 2368 -64 2880 553 2880 1382 
C 2880 2147 2496 2816 1946 2816 
C 1626 2816 1242 2700 954 2470 
L 954 2764 
L 480 2764 
L 480 -1280 
L 966 -1280 
L 966 275 
z
M 966 2088 
C 1018 2166 1235 2412 1587 2412 
C 2035 2412 2394 1946 2394 1382 
C 2394 741 1958 326 1530 326 
C 1402 326 1267 358 1139 468 
C 966 624 966 721 966 812 
L 966 2088 
z
" transform="scale(0.015625)"/>
        <path id="CMSS17-6d" d="M 4288 1878 
C 4288 2309 4179 2816 3462 2816 
C 2982 2816 2694 2515 2566 2328 
C 2451 2668 2182 2816 1798 2816 
C 1363 2816 1088 2566 941 2386 
L 941 2783 
L 474 2783 
L 474 0 
L 960 0 
L 960 1556 
C 960 1936 1101 2425 1555 2425 
C 2138 2425 2138 2013 2138 1826 
L 2138 0 
L 2624 0 
L 2624 1556 
C 2624 1936 2765 2425 3219 2425 
C 3802 2425 3802 2013 3802 1826 
L 3802 0 
L 4288 0 
L 4288 1878 
z
" transform="scale(0.015625)"/>
        <path id="CMSS17-62" d="M 954 4416 
L 480 4416 
L 480 -13 
L 966 -13 
L 966 275 
C 1210 38 1504 -64 1766 -64 
C 2381 -64 2880 559 2880 1382 
C 2880 2133 2496 2816 1926 2816 
C 1523 2816 1165 2649 954 2476 
L 954 4416 
z
M 966 2095 
C 1107 2276 1306 2425 1587 2425 
C 1965 2425 2394 2146 2394 1382 
C 2394 566 1882 326 1530 326 
C 1402 326 1267 358 1139 468 
C 966 624 966 721 966 812 
L 966 2095 
z
" transform="scale(0.015625)"/>
        <path id="CMSS17-72" d="M 954 1369 
C 954 1974 1395 2379 1958 2392 
L 1958 2816 
C 1549 2809 1165 2604 934 2270 
L 934 2783 
L 480 2783 
L 480 0 
L 954 0 
L 954 1369 
z
" transform="scale(0.015625)"/>
       </defs>
       <use xlink:href="#CMSS17-53" transform="scale(0.996264)"/>
       <use xlink:href="#CMSS17-65" transform="translate(52.048516 0) scale(0.996264)"/>
       <use xlink:href="#CMSS17-70" transform="translate(93.687338 0) scale(0.996264)"/>
       <use xlink:href="#CMSS17-74" transform="translate(141.892281 0) scale(0.996264)"/>
       <use xlink:href="#CMSS17-65" transform="translate(175.723848 0) scale(0.996264)"/>
       <use xlink:href="#CMSS17-6d" transform="translate(217.36267 0) scale(0.996264)"/>
       <use xlink:href="#CMSS17-62" transform="translate(291.591925 0) scale(0.996264)"/>
       <use xlink:href="#CMSS17-65" transform="translate(342.399306 0) scale(0.996264)"/>
       <use xlink:href="#CMSS17-72" transform="translate(384.038129 0) scale(0.996264)"/>
      </g>
     </g>
    </g>
    <g id="xtick_4">
     <g id="line2d_4">
      <g>
       <use xlink:href="#mc35ff246a4" x="1280.52" y="897.12" style="stroke: #000000; stroke-width: 5"/>
      </g>
     </g>
     <g id="text_4">
      <!-- October -->
      <g transform="translate(1217.38116 935.294009) scale(0.4 -0.4)">
       <defs>
        <path id="CMSS17-4f" d="M 4096 2201 
C 4096 3541 3219 4544 2214 4544 
C 1210 4544 333 3535 333 2201 
C 333 855 1222 -128 2214 -128 
C 3206 -128 4096 855 4096 2201 
z
M 2214 275 
C 1510 275 870 1067 870 2285 
C 870 3470 1549 4140 2214 4140 
C 2880 4140 3558 3470 3558 2285 
C 3558 1061 2912 275 2214 275 
z
" transform="scale(0.015625)"/>
        <path id="CMSS17-63" d="M 2464 2540 
C 2464 2585 2170 2713 2093 2739 
C 1882 2816 1613 2816 1542 2816 
C 710 2816 211 2092 211 1363 
C 211 595 768 -64 1517 -64 
C 1946 -64 2253 76 2502 243 
L 2464 665 
C 2189 454 1869 339 1523 339 
C 1024 339 698 774 698 1369 
C 698 1830 909 2412 1549 2412 
C 1901 2412 2099 2342 2394 2143 
L 2464 2540 
z
" transform="scale(0.015625)"/>
        <path id="CMSS17-6f" d="M 2829 1356 
C 2829 2175 2221 2816 1504 2816 
C 768 2816 173 2156 173 1356 
C 173 544 787 -64 1498 -64 
C 2227 -64 2829 563 2829 1356 
z
M 1504 339 
C 1050 339 659 710 659 1407 
C 659 2150 1114 2425 1498 2425 
C 1914 2425 2342 2124 2342 1407 
C 2342 684 1926 339 1504 339 
z
" transform="scale(0.015625)"/>
       </defs>
       <use xlink:href="#CMSS17-4f" transform="scale(0.996264)"/>
       <use xlink:href="#CMSS17-63" transform="translate(69.024255 0) scale(0.996264)"/>
       <use xlink:href="#CMSS17-74" transform="translate(110.663077 0) scale(0.996264)"/>
       <use xlink:href="#CMSS17-6f" transform="translate(144.494644 0) scale(0.996264)"/>
       <use xlink:href="#CMSS17-62" transform="translate(191.338268 0) scale(0.996264)"/>
       <use xlink:href="#CMSS17-65" transform="translate(242.145649 0) scale(0.996264)"/>
       <use xlink:href="#CMSS17-72" transform="translate(283.784472 0) scale(0.996264)"/>
      </g>
     </g>
    </g>
   </g>
   <g id="matplotlib.axis_2">
    <g id="ytick_1">
     <g id="line2d_5">
      <defs>
       <path id="md362a5a6cf" d="M 0 0 
L -7 0 
" style="stroke: #000000; stroke-width: 5"/>
      </defs>
      <g>
       <use xlink:href="#md362a5a6cf" x="198" y="837.415385" style="stroke: #000000; stroke-width: 5"/>
      </g>
     </g>
     <g id="text_5">
      <!-- 0.0 -->
      <g transform="translate(139.615434 851.252389) scale(0.4 -0.4)">
       <defs>
        <path id="CMSS17-30" d="M 2758 2073 
C 2758 2439 2752 3120 2490 3647 
C 2227 4153 1805 4288 1504 4288 
C 1069 4288 698 4031 506 3621 
C 301 3191 243 2748 243 2073 
C 243 1611 262 1046 493 551 
C 755 6 1197 -128 1498 -128 
C 1894 -128 2278 83 2496 525 
C 2720 988 2758 1495 2758 2073 
z
M 1498 262 
C 1011 262 864 821 819 1007 
C 742 1328 730 1636 730 2144 
C 730 2542 730 2992 851 3345 
C 998 3756 1254 3897 1498 3897 
C 1971 3897 2125 3422 2176 3255 
C 2272 2915 2272 2516 2272 2144 
C 2272 1546 2272 262 1498 262 
z
" transform="scale(0.015625)"/>
        <path id="CMSS17-2e" d="M 1088 512 
L 576 512 
L 576 0 
L 1088 0 
L 1088 512 
z
" transform="scale(0.015625)"/>
       </defs>
       <use xlink:href="#CMSS17-30" transform="scale(0.996264)"/>
       <use xlink:href="#CMSS17-2e" transform="translate(46.843624 0) scale(0.996264)"/>
       <use xlink:href="#CMSS17-30" transform="translate(72.867828 0) scale(0.996264)"/>
      </g>
     </g>
    </g>
    <g id="ytick_2">
     <g id="line2d_6">
      <g>
       <use xlink:href="#md362a5a6cf" x="198" y="718.006154" style="stroke: #000000; stroke-width: 5"/>
      </g>
     </g>
     <g id="text_6">
      <!-- 0.1 -->
      <g transform="translate(139.615434 731.843158) scale(0.4 -0.4)">
       <defs>
        <path id="CMSS17-31" d="M 1818 4288 
L 1696 4288 
C 1350 3949 947 3902 538 3891 
L 538 3520 
C 723 3526 1024 3539 1325 3673 
L 1325 371 
L 570 371 
L 570 0 
L 2573 0 
L 2573 371 
L 1818 371 
L 1818 4288 
z
" transform="scale(0.015625)"/>
       </defs>
       <use xlink:href="#CMSS17-30" transform="scale(0.996264)"/>
       <use xlink:href="#CMSS17-2e" transform="translate(46.843624 0) scale(0.996264)"/>
       <use xlink:href="#CMSS17-31" transform="translate(72.867828 0) scale(0.996264)"/>
      </g>
     </g>
    </g>
    <g id="ytick_3">
     <g id="line2d_7">
      <g>
       <use xlink:href="#md362a5a6cf" x="198" y="598.596923" style="stroke: #000000; stroke-width: 5"/>
      </g>
     </g>
     <g id="text_7">
      <!-- 0.2 -->
      <g transform="translate(139.615434 612.433927) scale(0.4 -0.4)">
       <defs>
        <path id="CMSS17-32" d="M 1651 1353 
C 1830 1538 2099 1761 2285 1984 
C 2464 2201 2701 2507 2701 2953 
C 2701 3655 2227 4288 1421 4288 
C 787 4288 422 3891 250 3272 
L 499 2928 
C 640 3508 838 3878 1338 3878 
C 1888 3878 2195 3431 2195 2940 
C 2195 2354 1747 1901 1408 1563 
C 1030 1187 659 805 301 409 
L 301 0 
L 2701 0 
L 2701 435 
L 1613 435 
C 1536 435 1459 428 1382 428 
L 742 428 
L 742 435 
L 1651 1353 
z
" transform="scale(0.015625)"/>
       </defs>
       <use xlink:href="#CMSS17-30" transform="scale(0.996264)"/>
       <use xlink:href="#CMSS17-2e" transform="translate(46.843624 0) scale(0.996264)"/>
       <use xlink:href="#CMSS17-32" transform="translate(72.867828 0) scale(0.996264)"/>
      </g>
     </g>
    </g>
    <g id="ytick_4">
     <g id="line2d_8">
      <g>
       <use xlink:href="#md362a5a6cf" x="198" y="479.187692" style="stroke: #000000; stroke-width: 5"/>
      </g>
     </g>
     <g id="text_8">
      <!-- 0.3 -->
      <g transform="translate(139.615434 493.024697) scale(0.4 -0.4)">
       <defs>
        <path id="CMSS17-33" d="M 1005 2060 
L 1440 2060 
C 2042 2060 2214 1532 2214 1164 
C 2214 662 1933 268 1472 268 
C 1114 268 608 449 320 926 
C 275 700 275 687 250 533 
C 550 89 1037 -128 1485 -128 
C 2214 -128 2752 481 2752 1158 
C 2752 1667 2400 2092 1920 2252 
C 2304 2463 2586 2860 2586 3321 
C 2586 3859 2093 4288 1491 4288 
C 941 4288 512 3948 333 3583 
C 378 3519 493 3334 550 3238 
C 691 3615 1056 3897 1485 3897 
C 1843 3897 2080 3660 2080 3321 
C 2080 2969 1856 2585 1478 2496 
C 1453 2496 1056 2457 1005 2451 
L 1005 2060 
z
" transform="scale(0.015625)"/>
       </defs>
       <use xlink:href="#CMSS17-30" transform="scale(0.996264)"/>
       <use xlink:href="#CMSS17-2e" transform="translate(46.843624 0) scale(0.996264)"/>
       <use xlink:href="#CMSS17-33" transform="translate(72.867828 0) scale(0.996264)"/>
      </g>
     </g>
    </g>
    <g id="ytick_5">
     <g id="line2d_9">
      <g>
       <use xlink:href="#md362a5a6cf" x="198" y="359.778462" style="stroke: #000000; stroke-width: 5"/>
      </g>
     </g>
     <g id="text_9">
      <!-- 0.4 -->
      <g transform="translate(139.615434 373.615466) scale(0.4 -0.4)">
       <defs>
        <path id="CMSS17-34" d="M 2253 1088 
L 2835 1088 
L 2835 1478 
L 2253 1478 
L 2253 4224 
L 1690 4224 
L 166 1478 
L 166 1088 
L 1747 1088 
L 1747 0 
L 2253 0 
L 2253 1088 
z
M 659 1478 
C 1030 2139 1766 3474 1766 3927 
L 1766 1478 
L 659 1478 
z
" transform="scale(0.015625)"/>
       </defs>
       <use xlink:href="#CMSS17-30" transform="scale(0.996264)"/>
       <use xlink:href="#CMSS17-2e" transform="translate(46.843624 0) scale(0.996264)"/>
       <use xlink:href="#CMSS17-34" transform="translate(72.867828 0) scale(0.996264)"/>
      </g>
     </g>
    </g>
    <g id="ytick_6">
     <g id="line2d_10">
      <g>
       <use xlink:href="#md362a5a6cf" x="198" y="240.369231" style="stroke: #000000; stroke-width: 5"/>
      </g>
     </g>
     <g id="text_10">
      <!-- 0.5 -->
      <g transform="translate(139.615434 254.206235) scale(0.4 -0.4)">
       <defs>
        <path id="CMSS17-35" d="M 934 3814 
L 2502 3814 
L 2502 4224 
L 467 4224 
L 467 1830 
L 896 1830 
C 1011 2103 1248 2304 1555 2304 
C 1843 2304 2163 2044 2163 1299 
C 2163 502 1709 268 1376 268 
C 966 268 589 521 422 871 
L 218 508 
C 512 51 992 -128 1376 -128 
C 2118 -128 2701 508 2701 1286 
C 2701 2083 2182 2694 1562 2694 
C 1338 2694 1120 2617 934 2464 
L 934 3814 
z
" transform="scale(0.015625)"/>
       </defs>
       <use xlink:href="#CMSS17-30" transform="scale(0.996264)"/>
       <use xlink:href="#CMSS17-2e" transform="translate(46.843624 0) scale(0.996264)"/>
       <use xlink:href="#CMSS17-35" transform="translate(72.867828 0) scale(0.996264)"/>
      </g>
     </g>
    </g>
    <g id="ytick_7">
     <g id="line2d_11">
      <g>
       <use xlink:href="#md362a5a6cf" x="198" y="120.96" style="stroke: #000000; stroke-width: 5"/>
      </g>
     </g>
     <g id="text_11">
      <!-- 0.6 -->
      <g transform="translate(139.615434 134.797004) scale(0.4 -0.4)">
       <defs>
        <path id="CMSS17-36" d="M 2496 4159 
C 2227 4268 2035 4288 1856 4288 
C 1024 4288 250 3408 250 2023 
C 250 268 986 -128 1510 -128 
C 1798 -128 2086 -39 2362 281 
C 2643 619 2752 900 2752 1392 
C 2752 2183 2362 2886 1779 2886 
C 1357 2886 992 2662 768 2381 
C 832 3290 1254 3897 1862 3897 
C 2029 3897 2246 3871 2496 3760 
L 2496 4159 
z
M 774 1372 
C 774 1423 774 1455 781 1551 
C 781 2049 1069 2496 1536 2496 
C 1837 2496 1990 2336 2106 2138 
C 2240 1889 2246 1653 2246 1392 
C 2246 1143 2246 894 2099 638 
C 1978 441 1818 268 1510 268 
C 902 268 800 1117 774 1372 
z
" transform="scale(0.015625)"/>
       </defs>
       <use xlink:href="#CMSS17-30" transform="scale(0.996264)"/>
       <use xlink:href="#CMSS17-2e" transform="translate(46.843624 0) scale(0.996264)"/>
       <use xlink:href="#CMSS17-36" transform="translate(72.867828 0) scale(0.996264)"/>
      </g>
     </g>
    </g>
    <g id="text_12">
     <!-- Mean $R^2$ between observed and predicted yield -->
     <g transform="translate(127.864167 876.886634) rotate(-90) scale(0.4 -0.4)">
      <defs>
       <path id="CMSS17-4d" d="M 3194 2373 
L 2886 1476 
C 2835 1311 2662 795 2624 592 
L 2618 592 
C 2598 719 2560 853 2458 1177 
C 2400 1368 2336 1565 2272 1743 
L 1325 4416 
L 576 4416 
L 576 0 
L 1075 0 
L 1075 3899 
L 1082 3899 
C 1082 3893 1139 3613 1530 2500 
L 2374 102 
L 2848 102 
L 3610 2233 
C 3661 2379 3821 2843 3891 3066 
C 3955 3257 4115 3728 4154 3912 
L 4160 3912 
L 4160 0 
L 4666 0 
L 4666 4416 
L 3923 4416 
L 3194 2373 
z
" transform="scale(0.015625)"/>
       <path id="CMSS17-61" d="M 2406 1789 
C 2406 2399 1978 2816 1402 2816 
C 1120 2816 813 2764 461 2559 
L 499 2133 
C 659 2250 934 2438 1395 2438 
C 1722 2438 1920 2185 1920 1782 
L 1920 1536 
C 896 1504 256 1209 256 711 
C 256 452 416 -64 947 -64 
C 1043 -64 1562 -52 1933 224 
L 1933 -13 
L 2406 -13 
L 2406 1789 
z
M 1920 824 
C 1920 711 1920 559 1728 446 
C 1562 339 1350 326 1261 326 
C 941 326 723 503 723 723 
C 723 1165 1722 1209 1920 1216 
L 1920 824 
z
" transform="scale(0.015625)"/>
       <path id="CMSS17-6e" d="M 2618 1878 
C 2618 2283 2522 2816 1798 2816 
C 1389 2816 1120 2604 941 2386 
L 941 2783 
L 474 2783 
L 474 0 
L 960 0 
L 960 1556 
C 960 1962 1114 2425 1549 2425 
C 2112 2425 2131 2045 2131 1826 
L 2131 0 
L 2618 0 
L 2618 1878 
z
" transform="scale(0.015625)"/>
       <path id="CMMI12-52" d="M 2355 3917 
C 2413 4153 2438 4166 2688 4166 
L 3149 4166 
C 3699 4166 4109 4000 4109 3503 
C 4109 3177 3942 2240 2656 2240 
L 1933 2240 
L 2355 3917 
z
M 3245 2163 
C 4038 2335 4659 2846 4659 3394 
C 4659 3892 4154 4352 3264 4352 
L 1530 4352 
C 1402 4352 1344 4352 1344 4230 
C 1344 4166 1389 4166 1510 4166 
C 1894 4166 1894 4115 1894 4045 
C 1894 4032 1894 3994 1869 3898 
L 1005 475 
C 947 253 934 190 493 190 
C 346 190 301 190 301 69 
C 301 6 371 6 390 6 
C 506 6 640 19 762 19 
L 1517 19 
C 1632 19 1766 6 1882 6 
C 1933 6 2003 6 2003 126 
C 2003 190 1946 190 1850 190 
C 1459 190 1459 241 1459 304 
C 1459 310 1459 355 1472 405 
L 1901 2112 
L 2669 2112 
C 3277 2112 3392 1731 3392 1522 
C 3392 1426 3328 1179 3283 1014 
C 3213 723 3194 653 3194 532 
C 3194 82 3565 -128 3994 -128 
C 4512 -128 4736 501 4736 589 
C 4736 634 4704 653 4666 653 
C 4614 653 4602 615 4589 564 
C 4435 114 4173 0 4013 0 
C 3853 0 3750 69 3750 355 
C 3750 507 3827 1084 3834 1116 
C 3866 1350 3866 1376 3866 1426 
C 3866 1889 3488 2086 3245 2163 
z
" transform="scale(0.015625)"/>
       <path id="CMR17-32" d="M 2669 990 
L 2554 990 
C 2490 537 2438 460 2413 422 
C 2381 371 1920 371 1830 371 
L 602 371 
C 832 620 1280 1073 1824 1596 
C 2214 1966 2669 2400 2669 3033 
C 2669 3788 2067 4224 1395 4224 
C 691 4224 262 3603 262 3027 
C 262 2777 448 2745 525 2745 
C 589 2745 781 2783 781 3007 
C 781 3206 614 3264 525 3264 
C 486 3264 448 3257 422 3244 
C 544 3788 915 4057 1306 4057 
C 1862 4057 2227 3616 2227 3033 
C 2227 2477 1901 1998 1536 1583 
L 262 147 
L 262 0 
L 2515 0 
L 2669 990 
z
" transform="scale(0.015625)"/>
       <path id="CMSS17-77" d="M 4013 2752 
L 3526 2752 
L 3187 1600 
C 3117 1356 2918 684 2893 371 
L 2886 371 
C 2874 563 2765 1024 2586 1632 
L 2259 2752 
L 1818 2752 
L 1498 1657 
C 1338 1100 1216 627 1203 371 
L 1197 371 
C 1171 748 909 1632 870 1772 
L 582 2752 
L 83 2752 
L 915 0 
L 1402 0 
C 1734 1100 1990 1952 2010 2380 
C 2022 2169 2131 1715 2195 1491 
L 2618 0 
L 3181 0 
L 4013 2752 
z
" transform="scale(0.015625)"/>
       <path id="CMSS17-76" d="M 2675 2752 
L 2176 2752 
L 1747 1555 
C 1613 1164 1421 627 1389 352 
L 1382 352 
C 1370 467 1318 633 1286 748 
C 1248 889 1197 1056 1158 1171 
L 595 2752 
L 83 2752 
L 1094 0 
L 1664 0 
L 2675 2752 
z
" transform="scale(0.015625)"/>
       <path id="CMSS17-64" d="M 2611 4416 
L 2138 4416 
L 2138 2495 
C 1939 2662 1613 2816 1254 2816 
C 672 2816 211 2179 211 1375 
C 211 572 666 -64 1235 -64 
C 1677 -64 1971 172 2125 307 
L 2125 -13 
L 2611 -13 
L 2611 4416 
z
M 2125 851 
C 2125 760 2125 663 1926 488 
C 1798 378 1645 326 1498 326 
C 1152 326 698 585 698 1369 
C 698 2185 1210 2425 1562 2425 
C 1798 2425 1990 2308 2125 2114 
L 2125 851 
z
" transform="scale(0.015625)"/>
       <path id="CMSS17-69" d="M 979 4224 
L 442 4224 
L 442 3686 
L 979 3686 
L 979 4224 
z
M 947 2752 
L 474 2752 
L 474 0 
L 947 0 
L 947 2752 
z
" transform="scale(0.015625)"/>
      </defs>
      <use xlink:href="#CMSS17-4d" transform="scale(0.996264)"/>
      <use xlink:href="#CMSS17-65" transform="translate(81.67603 0) scale(0.996264)"/>
      <use xlink:href="#CMSS17-61" transform="translate(123.314852 0) scale(0.996264)"/>
      <use xlink:href="#CMSS17-6e" transform="translate(168.236773 0) scale(0.996264)"/>
      <use xlink:href="#CMMI12-52" transform="translate(247.670829 0) scale(0.996264)"/>
      <use xlink:href="#CMR17-32" transform="translate(322.74179 36.153639) scale(0.697382)"/>
      <use xlink:href="#CMSS17-62" transform="translate(386.452217 0) scale(0.996264)"/>
      <use xlink:href="#CMSS17-65" transform="translate(437.259599 0) scale(0.996264)"/>
      <use xlink:href="#CMSS17-74" transform="translate(478.898421 0) scale(0.996264)"/>
      <use xlink:href="#CMSS17-77" transform="translate(510.127534 0) scale(0.996264)"/>
      <use xlink:href="#CMSS17-65" transform="translate(571.344625 0) scale(0.996264)"/>
      <use xlink:href="#CMSS17-65" transform="translate(612.983447 0) scale(0.996264)"/>
      <use xlink:href="#CMSS17-6e" transform="translate(654.622269 0) scale(0.996264)"/>
      <use xlink:href="#CMSS17-6f" transform="translate(734.056325 0) scale(0.996264)"/>
      <use xlink:href="#CMSS17-62" transform="translate(780.899949 0) scale(0.996264)"/>
      <use xlink:href="#CMSS17-73" transform="translate(829.104892 0) scale(0.996264)"/>
      <use xlink:href="#CMSS17-65" transform="translate(865.018434 0) scale(0.996264)"/>
      <use xlink:href="#CMSS17-72" transform="translate(906.657256 0) scale(0.996264)"/>
      <use xlink:href="#CMSS17-76" transform="translate(938.567028 0) scale(0.996264)"/>
      <use xlink:href="#CMSS17-65" transform="translate(981.56717 0) scale(0.996264)"/>
      <use xlink:href="#CMSS17-64" transform="translate(1023.205992 0) scale(0.996264)"/>
      <use xlink:href="#CMSS17-61" transform="translate(1102.640048 0) scale(0.996264)"/>
      <use xlink:href="#CMSS17-6e" transform="translate(1147.561969 0) scale(0.996264)"/>
      <use xlink:href="#CMSS17-64" transform="translate(1195.766912 0) scale(0.996264)"/>
      <use xlink:href="#CMSS17-70" transform="translate(1275.200968 0) scale(0.996264)"/>
      <use xlink:href="#CMSS17-72" transform="translate(1320.803457 0) scale(0.996264)"/>
      <use xlink:href="#CMSS17-65" transform="translate(1352.713229 0) scale(0.996264)"/>
      <use xlink:href="#CMSS17-64" transform="translate(1394.352051 0) scale(0.996264)"/>
      <use xlink:href="#CMSS17-69" transform="translate(1442.556995 0) scale(0.996264)"/>
      <use xlink:href="#CMSS17-63" transform="translate(1464.737718 0) scale(0.996264)"/>
      <use xlink:href="#CMSS17-74" transform="translate(1506.37654 0) scale(0.996264)"/>
      <use xlink:href="#CMSS17-65" transform="translate(1540.208106 0) scale(0.996264)"/>
      <use xlink:href="#CMSS17-64" transform="translate(1581.846928 0) scale(0.996264)"/>
      <use xlink:href="#CMSS17-79" transform="translate(1661.280984 0) scale(0.996264)"/>
      <use xlink:href="#CMSS17-69" transform="translate(1704.281126 0) scale(0.996264)"/>
      <use xlink:href="#CMSS17-65" transform="translate(1726.461849 0) scale(0.996264)"/>
      <use xlink:href="#CMSS17-6c" transform="translate(1768.100671 0) scale(0.996264)"/>
      <use xlink:href="#CMSS17-64" transform="translate(1790.281394 0) scale(0.996264)"/>
     </g>
    </g>
   </g>
   <g id="LineCollection_1">
    <path d="M 354.24 831.816397 
L 354.24 822.151296 
" clip-path="url(#p1cbfdd1761)" style="fill: none; stroke: #808000; stroke-width: 6"/>
    <path d="M 465.84 825.951155 
L 465.84 788.37186 
" clip-path="url(#p1cbfdd1761)" style="fill: none; stroke: #808000; stroke-width: 6"/>
    <path d="M 610.92 835.999136 
L 610.92 805.280229 
" clip-path="url(#p1cbfdd1761)" style="fill: none; stroke: #808000; stroke-width: 6"/>
    <path d="M 1079.64 805.520478 
L 1079.64 769.776665 
" clip-path="url(#p1cbfdd1761)" style="fill: none; stroke: #808000; stroke-width: 6"/>
    <path d="M 1280.52 832.253559 
L 1280.52 819.010384 
" clip-path="url(#p1cbfdd1761)" style="fill: none; stroke: #808000; stroke-width: 6"/>
    <path d="M 1369.8 836.547322 
L 1369.8 832.471297 
" clip-path="url(#p1cbfdd1761)" style="fill: none; stroke: #808000; stroke-width: 6"/>
   </g>
   <g id="line2d_12">
    <defs>
     <path id="mc0beafed19" d="M 12 0 
L -12 -0 
" style="stroke: #808000; stroke-width: 6"/>
    </defs>
    <g clip-path="url(#p1cbfdd1761)">
     <use xlink:href="#mc0beafed19" x="354.24" y="831.816397" style="fill: #808000; stroke: #808000; stroke-width: 6"/>
     <use xlink:href="#mc0beafed19" x="465.84" y="825.951155" style="fill: #808000; stroke: #808000; stroke-width: 6"/>
     <use xlink:href="#mc0beafed19" x="610.92" y="835.999136" style="fill: #808000; stroke: #808000; stroke-width: 6"/>
     <use xlink:href="#mc0beafed19" x="1079.64" y="805.520478" style="fill: #808000; stroke: #808000; stroke-width: 6"/>
     <use xlink:href="#mc0beafed19" x="1280.52" y="832.253559" style="fill: #808000; stroke: #808000; stroke-width: 6"/>
     <use xlink:href="#mc0beafed19" x="1369.8" y="836.547322" style="fill: #808000; stroke: #808000; stroke-width: 6"/>
    </g>
   </g>
   <g id="line2d_13">
    <g clip-path="url(#p1cbfdd1761)">
     <use xlink:href="#mc0beafed19" x="354.24" y="822.151296" style="fill: #808000; stroke: #808000; stroke-width: 6"/>
     <use xlink:href="#mc0beafed19" x="465.84" y="788.37186" style="fill: #808000; stroke: #808000; stroke-width: 6"/>
     <use xlink:href="#mc0beafed19" x="610.92" y="805.280229" style="fill: #808000; stroke: #808000; stroke-width: 6"/>
     <use xlink:href="#mc0beafed19" x="1079.64" y="769.776665" style="fill: #808000; stroke: #808000; stroke-width: 6"/>
     <use xlink:href="#mc0beafed19" x="1280.52" y="819.010384" style="fill: #808000; stroke: #808000; stroke-width: 6"/>
     <use xlink:href="#mc0beafed19" x="1369.8" y="832.471297" style="fill: #808000; stroke: #808000; stroke-width: 6"/>
    </g>
   </g>
   <g id="LineCollection_2">
    <path d="M 376.56 813.753242 
L 376.56 732.487277 
" clip-path="url(#p1cbfdd1761)" style="fill: none; stroke-dasharray: 22.2,9.6; stroke-dashoffset: 0; stroke: #808000; stroke-width: 6"/>
    <path d="M 532.8 830.806936 
L 532.8 819.792016 
" clip-path="url(#p1cbfdd1761)" style="fill: none; stroke-dasharray: 22.2,9.6; stroke-dashoffset: 0; stroke: #808000; stroke-width: 6"/>
    <path d="M 711.36 827.022645 
L 711.36 814.540045 
" clip-path="url(#p1cbfdd1761)" style="fill: none; stroke-dasharray: 22.2,9.6; stroke-dashoffset: 0; stroke: #808000; stroke-width: 6"/>
   </g>
   <g id="line2d_14">
    <g clip-path="url(#p1cbfdd1761)">
     <use xlink:href="#mc0beafed19" x="376.56" y="813.753242" style="fill: #808000; stroke: #808000; stroke-width: 6"/>
     <use xlink:href="#mc0beafed19" x="532.8" y="830.806936" style="fill: #808000; stroke: #808000; stroke-width: 6"/>
     <use xlink:href="#mc0beafed19" x="711.36" y="827.022645" style="fill: #808000; stroke: #808000; stroke-width: 6"/>
    </g>
   </g>
   <g id="line2d_15">
    <g clip-path="url(#p1cbfdd1761)">
     <use xlink:href="#mc0beafed19" x="376.56" y="732.487277" style="fill: #808000; stroke: #808000; stroke-width: 6"/>
     <use xlink:href="#mc0beafed19" x="532.8" y="819.792016" style="fill: #808000; stroke: #808000; stroke-width: 6"/>
     <use xlink:href="#mc0beafed19" x="711.36" y="814.540045" style="fill: #808000; stroke: #808000; stroke-width: 6"/>
    </g>
   </g>
   <g id="LineCollection_3">
    <path d="M 387.72 434.689704 
L 387.72 322.747886 
" clip-path="url(#p1cbfdd1761)" style="fill: none; stroke: #4b0082; stroke-width: 6"/>
    <path d="M 477 707.723834 
L 477 510.182984 
" clip-path="url(#p1cbfdd1761)" style="fill: none; stroke: #4b0082; stroke-width: 6"/>
    <path d="M 677.88 648.238842 
L 677.88 483.176314 
" clip-path="url(#p1cbfdd1761)" style="fill: none; stroke: #4b0082; stroke-width: 6"/>
    <path d="M 968.04 729.442008 
L 968.04 634.637326 
" clip-path="url(#p1cbfdd1761)" style="fill: none; stroke: #4b0082; stroke-width: 6"/>
    <path d="M 1057.32 687.923324 
L 1057.32 549.830548 
" clip-path="url(#p1cbfdd1761)" style="fill: none; stroke: #4b0082; stroke-width: 6"/>
    <path d="M 1146.6 828.001935 
L 1146.6 691.674616 
" clip-path="url(#p1cbfdd1761)" style="fill: none; stroke: #4b0082; stroke-width: 6"/>
   </g>
   <g id="line2d_16">
    <defs>
     <path id="m11def1ff7a" d="M 12 0 
L -12 -0 
" style="stroke: #4b0082; stroke-width: 6"/>
    </defs>
    <g clip-path="url(#p1cbfdd1761)">
     <use xlink:href="#m11def1ff7a" x="387.72" y="434.689704" style="fill: #4b0082; stroke: #4b0082; stroke-width: 6"/>
     <use xlink:href="#m11def1ff7a" x="477" y="707.723834" style="fill: #4b0082; stroke: #4b0082; stroke-width: 6"/>
     <use xlink:href="#m11def1ff7a" x="677.88" y="648.238842" style="fill: #4b0082; stroke: #4b0082; stroke-width: 6"/>
     <use xlink:href="#m11def1ff7a" x="968.04" y="729.442008" style="fill: #4b0082; stroke: #4b0082; stroke-width: 6"/>
     <use xlink:href="#m11def1ff7a" x="1057.32" y="687.923324" style="fill: #4b0082; stroke: #4b0082; stroke-width: 6"/>
     <use xlink:href="#m11def1ff7a" x="1146.6" y="828.001935" style="fill: #4b0082; stroke: #4b0082; stroke-width: 6"/>
    </g>
   </g>
   <g id="line2d_17">
    <g clip-path="url(#p1cbfdd1761)">
     <use xlink:href="#m11def1ff7a" x="387.72" y="322.747886" style="fill: #4b0082; stroke: #4b0082; stroke-width: 6"/>
     <use xlink:href="#m11def1ff7a" x="477" y="510.182984" style="fill: #4b0082; stroke: #4b0082; stroke-width: 6"/>
     <use xlink:href="#m11def1ff7a" x="677.88" y="483.176314" style="fill: #4b0082; stroke: #4b0082; stroke-width: 6"/>
     <use xlink:href="#m11def1ff7a" x="968.04" y="634.637326" style="fill: #4b0082; stroke: #4b0082; stroke-width: 6"/>
     <use xlink:href="#m11def1ff7a" x="1057.32" y="549.830548" style="fill: #4b0082; stroke: #4b0082; stroke-width: 6"/>
     <use xlink:href="#m11def1ff7a" x="1146.6" y="691.674616" style="fill: #4b0082; stroke: #4b0082; stroke-width: 6"/>
    </g>
   </g>
   <g id="LineCollection_4">
    <path d="M 387.72 699.146356 
L 387.72 533.225873 
" clip-path="url(#p1cbfdd1761)" style="fill: none; stroke-dasharray: 22.2,9.6; stroke-dashoffset: 0; stroke: #4b0082; stroke-width: 6"/>
    <path d="M 543.96 763.623171 
L 543.96 573.172896 
" clip-path="url(#p1cbfdd1761)" style="fill: none; stroke-dasharray: 22.2,9.6; stroke-dashoffset: 0; stroke: #4b0082; stroke-width: 6"/>
    <path d="M 700.2 732.844305 
L 700.2 595.178013 
" clip-path="url(#p1cbfdd1761)" style="fill: none; stroke-dasharray: 22.2,9.6; stroke-dashoffset: 0; stroke: #4b0082; stroke-width: 6"/>
   </g>
   <g id="line2d_18">
    <g clip-path="url(#p1cbfdd1761)">
     <use xlink:href="#m11def1ff7a" x="387.72" y="699.146356" style="fill: #4b0082; stroke: #4b0082; stroke-width: 6"/>
     <use xlink:href="#m11def1ff7a" x="543.96" y="763.623171" style="fill: #4b0082; stroke: #4b0082; stroke-width: 6"/>
     <use xlink:href="#m11def1ff7a" x="700.2" y="732.844305" style="fill: #4b0082; stroke: #4b0082; stroke-width: 6"/>
    </g>
   </g>
   <g id="line2d_19">
    <g clip-path="url(#p1cbfdd1761)">
     <use xlink:href="#m11def1ff7a" x="387.72" y="533.225873" style="fill: #4b0082; stroke: #4b0082; stroke-width: 6"/>
     <use xlink:href="#m11def1ff7a" x="543.96" y="573.172896" style="fill: #4b0082; stroke: #4b0082; stroke-width: 6"/>
     <use xlink:href="#m11def1ff7a" x="700.2" y="595.178013" style="fill: #4b0082; stroke: #4b0082; stroke-width: 6"/>
    </g>
   </g>
   <g id="LineCollection_5">
    <path d="M 410.04 529.928814 
L 410.04 413.214477 
" clip-path="url(#p1cbfdd1761)" style="fill: none; stroke: #dda0dd; stroke-width: 6"/>
    <path d="M 499.32 649.316578 
L 499.32 501.786048 
" clip-path="url(#p1cbfdd1761)" style="fill: none; stroke: #dda0dd; stroke-width: 6"/>
    <path d="M 700.2 719.285186 
L 700.2 588.869696 
" clip-path="url(#p1cbfdd1761)" style="fill: none; stroke: #dda0dd; stroke-width: 6"/>
    <path d="M 934.56 772.504076 
L 934.56 708.16878 
" clip-path="url(#p1cbfdd1761)" style="fill: none; stroke: #dda0dd; stroke-width: 6"/>
    <path d="M 1057.32 825.4099 
L 1057.32 803.427078 
" clip-path="url(#p1cbfdd1761)" style="fill: none; stroke: #dda0dd; stroke-width: 6"/>
    <path d="M 1202.4 827.660177 
L 1202.4 817.217379 
" clip-path="url(#p1cbfdd1761)" style="fill: none; stroke: #dda0dd; stroke-width: 6"/>
   </g>
   <g id="line2d_20">
    <defs>
     <path id="m2071c852f1" d="M 12 0 
L -12 -0 
" style="stroke: #dda0dd; stroke-width: 6"/>
    </defs>
    <g clip-path="url(#p1cbfdd1761)">
     <use xlink:href="#m2071c852f1" x="410.04" y="529.928814" style="fill: #dda0dd; stroke: #dda0dd; stroke-width: 6"/>
     <use xlink:href="#m2071c852f1" x="499.32" y="649.316578" style="fill: #dda0dd; stroke: #dda0dd; stroke-width: 6"/>
     <use xlink:href="#m2071c852f1" x="700.2" y="719.285186" style="fill: #dda0dd; stroke: #dda0dd; stroke-width: 6"/>
     <use xlink:href="#m2071c852f1" x="934.56" y="772.504076" style="fill: #dda0dd; stroke: #dda0dd; stroke-width: 6"/>
     <use xlink:href="#m2071c852f1" x="1057.32" y="825.4099" style="fill: #dda0dd; stroke: #dda0dd; stroke-width: 6"/>
     <use xlink:href="#m2071c852f1" x="1202.4" y="827.660177" style="fill: #dda0dd; stroke: #dda0dd; stroke-width: 6"/>
    </g>
   </g>
   <g id="line2d_21">
    <g clip-path="url(#p1cbfdd1761)">
     <use xlink:href="#m2071c852f1" x="410.04" y="413.214477" style="fill: #dda0dd; stroke: #dda0dd; stroke-width: 6"/>
     <use xlink:href="#m2071c852f1" x="499.32" y="501.786048" style="fill: #dda0dd; stroke: #dda0dd; stroke-width: 6"/>
     <use xlink:href="#m2071c852f1" x="700.2" y="588.869696" style="fill: #dda0dd; stroke: #dda0dd; stroke-width: 6"/>
     <use xlink:href="#m2071c852f1" x="934.56" y="708.16878" style="fill: #dda0dd; stroke: #dda0dd; stroke-width: 6"/>
     <use xlink:href="#m2071c852f1" x="1057.32" y="803.427078" style="fill: #dda0dd; stroke: #dda0dd; stroke-width: 6"/>
     <use xlink:href="#m2071c852f1" x="1202.4" y="817.217379" style="fill: #dda0dd; stroke: #dda0dd; stroke-width: 6"/>
    </g>
   </g>
   <g id="LineCollection_6">
    <path d="M 376.56 521.725623 
L 376.56 428.652469 
" clip-path="url(#p1cbfdd1761)" style="fill: none; stroke-dasharray: 22.2,9.6; stroke-dashoffset: 0; stroke: #dda0dd; stroke-width: 6"/>
    <path d="M 532.8 743.247627 
L 532.8 675.913544 
" clip-path="url(#p1cbfdd1761)" style="fill: none; stroke-dasharray: 22.2,9.6; stroke-dashoffset: 0; stroke: #dda0dd; stroke-width: 6"/>
    <path d="M 700.2 823.705793 
L 700.2 804.67875 
" clip-path="url(#p1cbfdd1761)" style="fill: none; stroke-dasharray: 22.2,9.6; stroke-dashoffset: 0; stroke: #dda0dd; stroke-width: 6"/>
   </g>
   <g id="line2d_22">
    <g clip-path="url(#p1cbfdd1761)">
     <use xlink:href="#m2071c852f1" x="376.56" y="521.725623" style="fill: #dda0dd; stroke: #dda0dd; stroke-width: 6"/>
     <use xlink:href="#m2071c852f1" x="532.8" y="743.247627" style="fill: #dda0dd; stroke: #dda0dd; stroke-width: 6"/>
     <use xlink:href="#m2071c852f1" x="700.2" y="823.705793" style="fill: #dda0dd; stroke: #dda0dd; stroke-width: 6"/>
    </g>
   </g>
   <g id="line2d_23">
    <g clip-path="url(#p1cbfdd1761)">
     <use xlink:href="#m2071c852f1" x="376.56" y="428.652469" style="fill: #dda0dd; stroke: #dda0dd; stroke-width: 6"/>
     <use xlink:href="#m2071c852f1" x="532.8" y="675.913544" style="fill: #dda0dd; stroke: #dda0dd; stroke-width: 6"/>
     <use xlink:href="#m2071c852f1" x="700.2" y="804.67875" style="fill: #dda0dd; stroke: #dda0dd; stroke-width: 6"/>
    </g>
   </g>
   <g id="line2d_24">
    <path d="M 354.24 826.983847 
L 465.84 807.161508 
L 610.92 820.639683 
L 1079.64 787.648571 
L 1280.52 825.631972 
L 1369.8 834.509309 
" clip-path="url(#p1cbfdd1761)" style="fill: none; stroke: #808000; stroke-width: 6; stroke-linecap: square"/>
   </g>
   <g id="line2d_25">
    <path d="M 376.56 773.120259 
L 532.8 825.299476 
L 711.36 820.781345 
" clip-path="url(#p1cbfdd1761)" style="fill: none; stroke-dasharray: 22.2,9.6; stroke-dashoffset: 0; stroke: #808000; stroke-width: 6"/>
   </g>
   <g id="line2d_26">
    <path d="M 387.72 378.718795 
L 477 608.953409 
L 677.88 565.707578 
L 968.04 682.039667 
L 1057.32 618.876936 
L 1146.6 759.838276 
" clip-path="url(#p1cbfdd1761)" style="fill: none; stroke: #4b0082; stroke-width: 6; stroke-linecap: square"/>
   </g>
   <g id="line2d_27">
    <path d="M 387.72 616.186115 
L 543.96 668.398033 
L 700.2 664.011159 
" clip-path="url(#p1cbfdd1761)" style="fill: none; stroke-dasharray: 22.2,9.6; stroke-dashoffset: 0; stroke: #4b0082; stroke-width: 6"/>
   </g>
   <g id="line2d_28">
    <path d="M 410.04 471.571646 
L 499.32 575.551313 
L 700.2 654.077441 
L 934.56 740.336428 
L 1057.32 814.418489 
L 1202.4 822.438778 
" clip-path="url(#p1cbfdd1761)" style="fill: none; stroke: #dda0dd; stroke-width: 6; stroke-linecap: square"/>
   </g>
   <g id="line2d_29">
    <path d="M 376.56 475.189046 
L 532.8 709.580586 
L 700.2 814.192271 
" clip-path="url(#p1cbfdd1761)" style="fill: none; stroke-dasharray: 22.2,9.6; stroke-dashoffset: 0; stroke: #dda0dd; stroke-width: 6"/>
   </g>
   <g id="patch_3">
    <path d="M 198 897.12 
L 198 120.96 
" style="fill: none; stroke: #000000; stroke-width: 5; stroke-linejoin: miter; stroke-linecap: square"/>
   </g>
   <g id="patch_4">
    <path d="M 198 897.12 
L 1425.6 897.12 
" style="fill: none; stroke: #000000; stroke-width: 5; stroke-linejoin: miter; stroke-linecap: square"/>
   </g>
   <g id="legend_1">
    <g id="patch_5">
     <path d="M 453.934193 542.892879 
L 1169.665807 542.892879 
Q 1177.665807 542.892879 1177.665807 534.892879 
L 1177.665807 148.96 
Q 1177.665807 140.96 1169.665807 140.96 
L 453.934193 140.96 
Q 445.934193 140.96 445.934193 148.96 
L 445.934193 534.892879 
Q 445.934193 542.892879 453.934193 542.892879 
z
" style="fill: #ffffff; opacity: 0.8; stroke: #cccccc; stroke-linejoin: miter"/>
    </g>
    <g id="text_13">
     <!-- Location - Image Type -->
     <g transform="translate(634.290573 184.634009) scale(0.4 -0.4)">
      <defs>
       <path id="CMSS17-4c" d="M 1670 416 
C 1594 416 1517 409 1440 409 
L 1101 409 
L 1101 4416 
L 563 4416 
L 563 0 
L 3002 0 
L 3002 416 
L 1670 416 
z
" transform="scale(0.015625)"/>
       <path id="CMSS17-2d" d="M 1664 1216 
L 1664 1587 
L 64 1587 
L 64 1216 
L 1664 1216 
z
" transform="scale(0.015625)"/>
       <path id="CMSS17-49" d="M 1094 4416 
L 557 4416 
L 557 0 
L 1094 0 
L 1094 4416 
z
" transform="scale(0.015625)"/>
       <path id="CMSS17-54" d="M 2317 3987 
L 2848 3987 
C 2925 3987 3002 3980 3078 3980 
L 3878 3980 
L 3878 4396 
L 218 4396 
L 218 3980 
L 1018 3980 
C 1094 3980 1171 3987 1248 3987 
L 1779 3987 
L 1779 0 
L 2317 0 
L 2317 3987 
z
" transform="scale(0.015625)"/>
      </defs>
      <use xlink:href="#CMSS17-4c" transform="scale(0.996264)"/>
      <use xlink:href="#CMSS17-6f" transform="translate(50.687105 0) scale(0.996264)"/>
      <use xlink:href="#CMSS17-63" transform="translate(100.133168 0) scale(0.996264)"/>
      <use xlink:href="#CMSS17-61" transform="translate(141.77199 0) scale(0.996264)"/>
      <use xlink:href="#CMSS17-74" transform="translate(186.69391 0) scale(0.996264)"/>
      <use xlink:href="#CMSS17-69" transform="translate(220.525477 0) scale(0.996264)"/>
      <use xlink:href="#CMSS17-6f" transform="translate(242.7062 0) scale(0.996264)"/>
      <use xlink:href="#CMSS17-6e" transform="translate(289.549824 0) scale(0.996264)"/>
      <use xlink:href="#CMSS17-2d" transform="translate(368.983879 0) scale(0.996264)"/>
      <use xlink:href="#CMSS17-49" transform="translate(431.442105 0) scale(0.996264)"/>
      <use xlink:href="#CMSS17-6d" transform="translate(457.22603 0) scale(0.996264)"/>
      <use xlink:href="#CMSS17-61" transform="translate(531.455285 0) scale(0.996264)"/>
      <use xlink:href="#CMSS17-67" transform="translate(576.377205 0) scale(0.996264)"/>
      <use xlink:href="#CMSS17-65" transform="translate(623.220829 0) scale(0.996264)"/>
      <use xlink:href="#CMSS17-54" transform="translate(696.088764 0) scale(0.996264)"/>
      <use xlink:href="#CMSS17-79" transform="translate(752.100962 0) scale(0.996264)"/>
      <use xlink:href="#CMSS17-70" transform="translate(795.101104 0) scale(0.996264)"/>
      <use xlink:href="#CMSS17-65" transform="translate(845.908486 0) scale(0.996264)"/>
     </g>
    </g>
    <g id="LineCollection_7">
     <path d="M 501.934193 246.385276 
L 501.934193 206.385276 
" style="fill: none; stroke: #dda0dd; stroke-width: 6"/>
    </g>
    <g id="line2d_30">
     <g>
      <use xlink:href="#m2071c852f1" x="501.934193" y="246.385276" style="fill: #dda0dd; stroke: #dda0dd; stroke-width: 6"/>
     </g>
    </g>
    <g id="line2d_31">
     <g>
      <use xlink:href="#m2071c852f1" x="501.934193" y="206.385276" style="fill: #dda0dd; stroke: #dda0dd; stroke-width: 6"/>
     </g>
    </g>
    <g id="line2d_32">
     <path d="M 461.934193 226.385276 
L 541.934193 226.385276 
" style="fill: none; stroke: #dda0dd; stroke-width: 6; stroke-linecap: square"/>
    </g>
    <g id="line2d_33"/>
    <g id="text_14">
     <!-- Ames - Satellite -->
     <g transform="translate(573.934193 240.385276) scale(0.4 -0.4)">
      <use xlink:href="#CMSS17-41" transform="scale(0.996264)"/>
      <use xlink:href="#CMSS17-6d" transform="translate(62.217855 0) scale(0.996264)"/>
      <use xlink:href="#CMSS17-65" transform="translate(136.447109 0) scale(0.996264)"/>
      <use xlink:href="#CMSS17-73" transform="translate(178.085931 0) scale(0.996264)"/>
      <use xlink:href="#CMSS17-2d" transform="translate(245.228586 0) scale(0.996264)"/>
      <use xlink:href="#CMSS17-53" transform="translate(307.686812 0) scale(0.996264)"/>
      <use xlink:href="#CMSS17-61" transform="translate(359.735328 0) scale(0.996264)"/>
      <use xlink:href="#CMSS17-74" transform="translate(404.657248 0) scale(0.996264)"/>
      <use xlink:href="#CMSS17-65" transform="translate(438.488815 0) scale(0.996264)"/>
      <use xlink:href="#CMSS17-6c" transform="translate(480.127637 0) scale(0.996264)"/>
      <use xlink:href="#CMSS17-6c" transform="translate(502.30836 0) scale(0.996264)"/>
      <use xlink:href="#CMSS17-69" transform="translate(524.489083 0) scale(0.996264)"/>
      <use xlink:href="#CMSS17-74" transform="translate(546.669806 0) scale(0.996264)"/>
      <use xlink:href="#CMSS17-65" transform="translate(580.501373 0) scale(0.996264)"/>
     </g>
    </g>
    <g id="LineCollection_8">
     <path d="M 501.934193 302.136543 
L 501.934193 262.136543 
" style="fill: none; stroke-dasharray: 22.2,9.6; stroke-dashoffset: 0; stroke: #dda0dd; stroke-width: 6"/>
    </g>
    <g id="line2d_34">
     <g>
      <use xlink:href="#m2071c852f1" x="501.934193" y="302.136543" style="fill: #dda0dd; stroke: #dda0dd; stroke-width: 6"/>
     </g>
    </g>
    <g id="line2d_35">
     <g>
      <use xlink:href="#m2071c852f1" x="501.934193" y="262.136543" style="fill: #dda0dd; stroke: #dda0dd; stroke-width: 6"/>
     </g>
    </g>
    <g id="line2d_36">
     <path d="M 461.934193 282.136543 
L 541.934193 282.136543 
" style="fill: none; stroke-dasharray: 22.2,9.6; stroke-dashoffset: 0; stroke: #dda0dd; stroke-width: 6"/>
    </g>
    <g id="line2d_37"/>
    <g id="text_15">
     <!-- Ames - UAV Vegetative -->
     <g transform="translate(573.934193 296.136543) scale(0.4 -0.4)">
      <defs>
       <path id="CMSS17-55" d="M 3552 4416 
L 3066 4416 
L 3066 1459 
C 3066 608 2547 230 2074 230 
C 1587 230 1101 627 1101 1452 
L 1101 4416 
L 563 4416 
L 563 1465 
C 563 544 1274 -128 2067 -128 
C 2861 -128 3552 544 3552 1465 
L 3552 4416 
z
" transform="scale(0.015625)"/>
       <path id="CMSS17-56" d="M 3910 4416 
L 3411 4416 
L 2304 1361 
C 2272 1272 2074 687 2035 484 
L 2029 484 
C 1978 725 1773 1291 1664 1603 
L 922 3670 
L 646 4416 
L 83 4416 
L 1715 0 
L 2278 0 
L 3910 4416 
z
" transform="scale(0.015625)"/>
      </defs>
      <use xlink:href="#CMSS17-41" transform="scale(0.996264)"/>
      <use xlink:href="#CMSS17-6d" transform="translate(62.217855 0) scale(0.996264)"/>
      <use xlink:href="#CMSS17-65" transform="translate(136.447109 0) scale(0.996264)"/>
      <use xlink:href="#CMSS17-73" transform="translate(178.085931 0) scale(0.996264)"/>
      <use xlink:href="#CMSS17-2d" transform="translate(245.228586 0) scale(0.996264)"/>
      <use xlink:href="#CMSS17-55" transform="translate(307.686812 0) scale(0.996264)"/>
      <use xlink:href="#CMSS17-41" transform="translate(371.826552 0) scale(0.996264)"/>
      <use xlink:href="#CMSS17-56" transform="translate(423.634698 0) scale(0.996264)"/>
      <use xlink:href="#CMSS17-56" transform="translate(517.081665 0) scale(0.996264)"/>
      <use xlink:href="#CMSS17-65" transform="translate(576.697066 0) scale(0.996264)"/>
      <use xlink:href="#CMSS17-67" transform="translate(618.335888 0) scale(0.996264)"/>
      <use xlink:href="#CMSS17-65" transform="translate(665.179512 0) scale(0.996264)"/>
      <use xlink:href="#CMSS17-74" transform="translate(706.818334 0) scale(0.996264)"/>
      <use xlink:href="#CMSS17-61" transform="translate(740.649901 0) scale(0.996264)"/>
      <use xlink:href="#CMSS17-74" transform="translate(785.571821 0) scale(0.996264)"/>
      <use xlink:href="#CMSS17-69" transform="translate(819.403388 0) scale(0.996264)"/>
      <use xlink:href="#CMSS17-76" transform="translate(841.584111 0) scale(0.996264)"/>
      <use xlink:href="#CMSS17-65" transform="translate(884.584253 0) scale(0.996264)"/>
     </g>
    </g>
    <g id="LineCollection_9">
     <path d="M 501.934193 357.88781 
L 501.934193 317.88781 
" style="fill: none; stroke-dasharray: 22.2,9.6; stroke-dashoffset: 0; stroke: #808000; stroke-width: 6"/>
    </g>
    <g id="line2d_38">
     <g>
      <use xlink:href="#mc0beafed19" x="501.934193" y="357.88781" style="fill: #808000; stroke: #808000; stroke-width: 6"/>
     </g>
    </g>
    <g id="line2d_39">
     <g>
      <use xlink:href="#mc0beafed19" x="501.934193" y="317.88781" style="fill: #808000; stroke: #808000; stroke-width: 6"/>
     </g>
    </g>
    <g id="line2d_40">
     <path d="M 461.934193 337.88781 
L 541.934193 337.88781 
" style="fill: none; stroke-dasharray: 22.2,9.6; stroke-dashoffset: 0; stroke: #808000; stroke-width: 6"/>
    </g>
    <g id="line2d_41"/>
    <g id="text_16">
     <!-- Crawfordsville - UAV Vegetative -->
     <g transform="translate(573.934193 351.88781) scale(0.4 -0.4)">
      <defs>
       <path id="CMSS17-43" d="M 3501 705 
C 3072 416 2874 332 2355 332 
C 1459 332 934 1304 934 2191 
C 934 3137 1472 4070 2381 4070 
C 2790 4070 3059 3954 3386 3748 
L 3475 4255 
C 3168 4409 2778 4480 2387 4480 
C 1158 4480 397 3343 397 2191 
C 397 924 1299 -77 2323 -77 
C 2874 -77 3066 -32 3539 268 
L 3501 705 
z
" transform="scale(0.015625)"/>
       <path id="CMSS17-66" d="M 1075 2380 
L 1722 2380 
L 1722 2752 
L 1062 2752 
L 1062 3563 
C 1062 4013 1408 4089 1606 4089 
C 1670 4089 1850 4089 2080 4007 
L 2080 4428 
C 1933 4460 1754 4480 1613 4480 
C 1018 4480 602 3994 602 3366 
L 602 2752 
L 160 2752 
L 160 2380 
L 602 2380 
L 602 0 
L 1075 0 
L 1075 2380 
z
" transform="scale(0.015625)"/>
      </defs>
      <use xlink:href="#CMSS17-43" transform="scale(0.996264)"/>
      <use xlink:href="#CMSS17-72" transform="translate(59.855772 0) scale(0.996264)"/>
      <use xlink:href="#CMSS17-61" transform="translate(91.765544 0) scale(0.996264)"/>
      <use xlink:href="#CMSS17-77" transform="translate(134.085011 0) scale(0.996264)"/>
      <use xlink:href="#CMSS17-66" transform="translate(197.904556 0) scale(0.996264)"/>
      <use xlink:href="#CMSS17-6f" transform="translate(226.531215 0) scale(0.996264)"/>
      <use xlink:href="#CMSS17-72" transform="translate(270.772384 0) scale(0.996264)"/>
      <use xlink:href="#CMSS17-64" transform="translate(302.682157 0) scale(0.996264)"/>
      <use xlink:href="#CMSS17-73" transform="translate(350.8871 0) scale(0.996264)"/>
      <use xlink:href="#CMSS17-76" transform="translate(386.800642 0) scale(0.996264)"/>
      <use xlink:href="#CMSS17-69" transform="translate(429.800784 0) scale(0.996264)"/>
      <use xlink:href="#CMSS17-6c" transform="translate(451.981507 0) scale(0.996264)"/>
      <use xlink:href="#CMSS17-6c" transform="translate(474.16223 0) scale(0.996264)"/>
      <use xlink:href="#CMSS17-65" transform="translate(496.342953 0) scale(0.996264)"/>
      <use xlink:href="#CMSS17-2d" transform="translate(569.210888 0) scale(0.996264)"/>
      <use xlink:href="#CMSS17-55" transform="translate(631.669113 0) scale(0.996264)"/>
      <use xlink:href="#CMSS17-41" transform="translate(695.808853 0) scale(0.996264)"/>
      <use xlink:href="#CMSS17-56" transform="translate(747.616999 0) scale(0.996264)"/>
      <use xlink:href="#CMSS17-56" transform="translate(841.063967 0) scale(0.996264)"/>
      <use xlink:href="#CMSS17-65" transform="translate(900.679368 0) scale(0.996264)"/>
      <use xlink:href="#CMSS17-67" transform="translate(942.31819 0) scale(0.996264)"/>
      <use xlink:href="#CMSS17-65" transform="translate(989.161813 0) scale(0.996264)"/>
      <use xlink:href="#CMSS17-74" transform="translate(1030.800635 0) scale(0.996264)"/>
      <use xlink:href="#CMSS17-61" transform="translate(1064.632202 0) scale(0.996264)"/>
      <use xlink:href="#CMSS17-74" transform="translate(1109.554123 0) scale(0.996264)"/>
      <use xlink:href="#CMSS17-69" transform="translate(1143.385689 0) scale(0.996264)"/>
      <use xlink:href="#CMSS17-76" transform="translate(1165.566412 0) scale(0.996264)"/>
      <use xlink:href="#CMSS17-65" transform="translate(1208.566554 0) scale(0.996264)"/>
     </g>
    </g>
    <g id="LineCollection_10">
     <path d="M 501.934193 413.639078 
L 501.934193 373.639078 
" style="fill: none; stroke: #808000; stroke-width: 6"/>
    </g>
    <g id="line2d_42">
     <g>
      <use xlink:href="#mc0beafed19" x="501.934193" y="413.639078" style="fill: #808000; stroke: #808000; stroke-width: 6"/>
     </g>
    </g>
    <g id="line2d_43">
     <g>
      <use xlink:href="#mc0beafed19" x="501.934193" y="373.639078" style="fill: #808000; stroke: #808000; stroke-width: 6"/>
     </g>
    </g>
    <g id="line2d_44">
     <path d="M 461.934193 393.639078 
L 541.934193 393.639078 
" style="fill: none; stroke: #808000; stroke-width: 6; stroke-linecap: square"/>
    </g>
    <g id="line2d_45"/>
    <g id="text_17">
     <!-- Crawfordsville - Satellite -->
     <g transform="translate(573.934193 407.639078) scale(0.4 -0.4)">
      <use xlink:href="#CMSS17-43" transform="scale(0.996264)"/>
      <use xlink:href="#CMSS17-72" transform="translate(59.855772 0) scale(0.996264)"/>
      <use xlink:href="#CMSS17-61" transform="translate(91.765544 0) scale(0.996264)"/>
      <use xlink:href="#CMSS17-77" transform="translate(134.085011 0) scale(0.996264)"/>
      <use xlink:href="#CMSS17-66" transform="translate(197.904556 0) scale(0.996264)"/>
      <use xlink:href="#CMSS17-6f" transform="translate(226.531215 0) scale(0.996264)"/>
      <use xlink:href="#CMSS17-72" transform="translate(270.772384 0) scale(0.996264)"/>
      <use xlink:href="#CMSS17-64" transform="translate(302.682157 0) scale(0.996264)"/>
      <use xlink:href="#CMSS17-73" transform="translate(350.8871 0) scale(0.996264)"/>
      <use xlink:href="#CMSS17-76" transform="translate(386.800642 0) scale(0.996264)"/>
      <use xlink:href="#CMSS17-69" transform="translate(429.800784 0) scale(0.996264)"/>
      <use xlink:href="#CMSS17-6c" transform="translate(451.981507 0) scale(0.996264)"/>
      <use xlink:href="#CMSS17-6c" transform="translate(474.16223 0) scale(0.996264)"/>
      <use xlink:href="#CMSS17-65" transform="translate(496.342953 0) scale(0.996264)"/>
      <use xlink:href="#CMSS17-2d" transform="translate(569.210888 0) scale(0.996264)"/>
      <use xlink:href="#CMSS17-53" transform="translate(631.669113 0) scale(0.996264)"/>
      <use xlink:href="#CMSS17-61" transform="translate(683.717629 0) scale(0.996264)"/>
      <use xlink:href="#CMSS17-74" transform="translate(728.63955 0) scale(0.996264)"/>
      <use xlink:href="#CMSS17-65" transform="translate(762.471117 0) scale(0.996264)"/>
      <use xlink:href="#CMSS17-6c" transform="translate(804.109939 0) scale(0.996264)"/>
      <use xlink:href="#CMSS17-6c" transform="translate(826.290662 0) scale(0.996264)"/>
      <use xlink:href="#CMSS17-69" transform="translate(848.471385 0) scale(0.996264)"/>
      <use xlink:href="#CMSS17-74" transform="translate(870.652108 0) scale(0.996264)"/>
      <use xlink:href="#CMSS17-65" transform="translate(904.483675 0) scale(0.996264)"/>
     </g>
    </g>
    <g id="LineCollection_11">
     <path d="M 501.934193 469.390345 
L 501.934193 429.390345 
" style="fill: none; stroke: #4b0082; stroke-width: 6"/>
    </g>
    <g id="line2d_46">
     <g>
      <use xlink:href="#m11def1ff7a" x="501.934193" y="469.390345" style="fill: #4b0082; stroke: #4b0082; stroke-width: 6"/>
     </g>
    </g>
    <g id="line2d_47">
     <g>
      <use xlink:href="#m11def1ff7a" x="501.934193" y="429.390345" style="fill: #4b0082; stroke: #4b0082; stroke-width: 6"/>
     </g>
    </g>
    <g id="line2d_48">
     <path d="M 461.934193 449.390345 
L 541.934193 449.390345 
" style="fill: none; stroke: #4b0082; stroke-width: 6; stroke-linecap: square"/>
    </g>
    <g id="line2d_49"/>
    <g id="text_18">
     <!-- Missouri Valley - Satellite Flowering -->
     <g transform="translate(573.934193 463.390345) scale(0.4 -0.4)">
      <defs>
       <path id="CMSS17-46" d="M 2918 1984 
L 2918 2374 
L 1101 2374 
L 1101 3993 
L 1882 3993 
C 1958 3993 2035 3987 2112 3987 
L 3168 3987 
L 3168 4403 
L 563 4403 
L 563 0 
L 1101 0 
L 1101 1984 
L 2918 1984 
z
" transform="scale(0.015625)"/>
      </defs>
      <use xlink:href="#CMSS17-4d" transform="scale(0.996264)"/>
      <use xlink:href="#CMSS17-69" transform="translate(81.67603 0) scale(0.996264)"/>
      <use xlink:href="#CMSS17-73" transform="translate(103.856753 0) scale(0.996264)"/>
      <use xlink:href="#CMSS17-73" transform="translate(139.770295 0) scale(0.996264)"/>
      <use xlink:href="#CMSS17-6f" transform="translate(175.683837 0) scale(0.996264)"/>
      <use xlink:href="#CMSS17-75" transform="translate(222.52746 0) scale(0.996264)"/>
      <use xlink:href="#CMSS17-72" transform="translate(270.732404 0) scale(0.996264)"/>
      <use xlink:href="#CMSS17-69" transform="translate(302.642176 0) scale(0.996264)"/>
      <use xlink:href="#CMSS17-56" transform="translate(356.052012 0) scale(0.996264)"/>
      <use xlink:href="#CMSS17-61" transform="translate(415.667413 0) scale(0.996264)"/>
      <use xlink:href="#CMSS17-6c" transform="translate(460.589334 0) scale(0.996264)"/>
      <use xlink:href="#CMSS17-6c" transform="translate(482.770057 0) scale(0.996264)"/>
      <use xlink:href="#CMSS17-65" transform="translate(504.95078 0) scale(0.996264)"/>
      <use xlink:href="#CMSS17-79" transform="translate(546.589602 0) scale(0.996264)"/>
      <use xlink:href="#CMSS17-2d" transform="translate(620.818856 0) scale(0.996264)"/>
      <use xlink:href="#CMSS17-53" transform="translate(683.277082 0) scale(0.996264)"/>
      <use xlink:href="#CMSS17-61" transform="translate(735.325598 0) scale(0.996264)"/>
      <use xlink:href="#CMSS17-74" transform="translate(780.247518 0) scale(0.996264)"/>
      <use xlink:href="#CMSS17-65" transform="translate(814.079085 0) scale(0.996264)"/>
      <use xlink:href="#CMSS17-6c" transform="translate(855.717907 0) scale(0.996264)"/>
      <use xlink:href="#CMSS17-6c" transform="translate(877.89863 0) scale(0.996264)"/>
      <use xlink:href="#CMSS17-69" transform="translate(900.079353 0) scale(0.996264)"/>
      <use xlink:href="#CMSS17-74" transform="translate(922.260076 0) scale(0.996264)"/>
      <use xlink:href="#CMSS17-65" transform="translate(956.091643 0) scale(0.996264)"/>
      <use xlink:href="#CMSS17-46" transform="translate(1028.959578 0) scale(0.996264)"/>
      <use xlink:href="#CMSS17-6c" transform="translate(1082.249137 0) scale(0.996264)"/>
      <use xlink:href="#CMSS17-6f" transform="translate(1104.42986 0) scale(0.996264)"/>
      <use xlink:href="#CMSS17-77" transform="translate(1148.67103 0) scale(0.996264)"/>
      <use xlink:href="#CMSS17-65" transform="translate(1209.888121 0) scale(0.996264)"/>
      <use xlink:href="#CMSS17-72" transform="translate(1251.526943 0) scale(0.996264)"/>
      <use xlink:href="#CMSS17-69" transform="translate(1283.436716 0) scale(0.996264)"/>
      <use xlink:href="#CMSS17-6e" transform="translate(1305.617439 0) scale(0.996264)"/>
      <use xlink:href="#CMSS17-67" transform="translate(1353.822382 0) scale(0.996264)"/>
     </g>
    </g>
    <g id="LineCollection_12">
     <path d="M 501.934193 525.141612 
L 501.934193 485.141612 
" style="fill: none; stroke-dasharray: 22.2,9.6; stroke-dashoffset: 0; stroke: #4b0082; stroke-width: 6"/>
    </g>
    <g id="line2d_50">
     <g>
      <use xlink:href="#m11def1ff7a" x="501.934193" y="525.141612" style="fill: #4b0082; stroke: #4b0082; stroke-width: 6"/>
     </g>
    </g>
    <g id="line2d_51">
     <g>
      <use xlink:href="#m11def1ff7a" x="501.934193" y="485.141612" style="fill: #4b0082; stroke: #4b0082; stroke-width: 6"/>
     </g>
    </g>
    <g id="line2d_52">
     <path d="M 461.934193 505.141612 
L 541.934193 505.141612 
" style="fill: none; stroke-dasharray: 22.2,9.6; stroke-dashoffset: 0; stroke: #4b0082; stroke-width: 6"/>
    </g>
    <g id="line2d_53"/>
    <g id="text_19">
     <!-- Missouri Valley - UAV Post Flowering -->
     <g transform="translate(573.934193 519.141612) scale(0.4 -0.4)">
      <defs>
       <path id="CMSS17-50" d="M 2106 1856 
C 2874 1856 3501 2447 3501 3139 
C 3501 3818 2899 4416 2067 4416 
L 570 4416 
L 570 0 
L 1107 0 
L 1107 1856 
L 2106 1856 
z
M 1926 4057 
C 2669 4057 2995 3598 2995 3139 
C 2995 2711 2694 2227 1926 2227 
L 1094 2227 
L 1094 4057 
L 1926 4057 
z
" transform="scale(0.015625)"/>
      </defs>
      <use xlink:href="#CMSS17-4d" transform="scale(0.996264)"/>
      <use xlink:href="#CMSS17-69" transform="translate(81.67603 0) scale(0.996264)"/>
      <use xlink:href="#CMSS17-73" transform="translate(103.856753 0) scale(0.996264)"/>
      <use xlink:href="#CMSS17-73" transform="translate(139.770295 0) scale(0.996264)"/>
      <use xlink:href="#CMSS17-6f" transform="translate(175.683837 0) scale(0.996264)"/>
      <use xlink:href="#CMSS17-75" transform="translate(222.52746 0) scale(0.996264)"/>
      <use xlink:href="#CMSS17-72" transform="translate(270.732404 0) scale(0.996264)"/>
      <use xlink:href="#CMSS17-69" transform="translate(302.642176 0) scale(0.996264)"/>
      <use xlink:href="#CMSS17-56" transform="translate(356.052012 0) scale(0.996264)"/>
      <use xlink:href="#CMSS17-61" transform="translate(415.667413 0) scale(0.996264)"/>
      <use xlink:href="#CMSS17-6c" transform="translate(460.589334 0) scale(0.996264)"/>
      <use xlink:href="#CMSS17-6c" transform="translate(482.770057 0) scale(0.996264)"/>
      <use xlink:href="#CMSS17-65" transform="translate(504.95078 0) scale(0.996264)"/>
      <use xlink:href="#CMSS17-79" transform="translate(546.589602 0) scale(0.996264)"/>
      <use xlink:href="#CMSS17-2d" transform="translate(620.818856 0) scale(0.996264)"/>
      <use xlink:href="#CMSS17-55" transform="translate(683.277082 0) scale(0.996264)"/>
      <use xlink:href="#CMSS17-41" transform="translate(747.416822 0) scale(0.996264)"/>
      <use xlink:href="#CMSS17-56" transform="translate(799.224968 0) scale(0.996264)"/>
      <use xlink:href="#CMSS17-50" transform="translate(892.671935 0) scale(0.996264)"/>
      <use xlink:href="#CMSS17-6f" transform="translate(949.805068 0) scale(0.996264)"/>
      <use xlink:href="#CMSS17-73" transform="translate(996.648691 0) scale(0.996264)"/>
      <use xlink:href="#CMSS17-74" transform="translate(1032.562233 0) scale(0.996264)"/>
      <use xlink:href="#CMSS17-46" transform="translate(1097.622912 0) scale(0.996264)"/>
      <use xlink:href="#CMSS17-6c" transform="translate(1150.912472 0) scale(0.996264)"/>
      <use xlink:href="#CMSS17-6f" transform="translate(1173.093195 0) scale(0.996264)"/>
      <use xlink:href="#CMSS17-77" transform="translate(1217.334364 0) scale(0.996264)"/>
      <use xlink:href="#CMSS17-65" transform="translate(1278.551456 0) scale(0.996264)"/>
      <use xlink:href="#CMSS17-72" transform="translate(1320.190278 0) scale(0.996264)"/>
      <use xlink:href="#CMSS17-69" transform="translate(1352.10005 0) scale(0.996264)"/>
      <use xlink:href="#CMSS17-6e" transform="translate(1374.280773 0) scale(0.996264)"/>
      <use xlink:href="#CMSS17-67" transform="translate(1422.485716 0) scale(0.996264)"/>
     </g>
    </g>
   </g>
  </g>
 </g>
 <defs>
  <clipPath id="p1cbfdd1761">
   <rect x="198" y="120.96" width="1227.6" height="776.16"/>
  </clipPath>
 </defs>
</svg>
